<?xml version="1.0" standalone="no"?>
<!DOCTYPE svg PUBLIC "-//W3C//DTD SVG 1.1//EN" "http://www.w3.org/Graphics/SVG/1.1/DTD/svg11.dtd" >
<svg>
<metadata>
Created by FontForge 20090622 at Tue Oct 22 15:43:46 2013
 By nodejs
2001 Erik Spiekermann, published by FontShop International for the FontFont library.
</metadata>
<defs>
<font id="MetaNormal-Roman" horiz-adv-x="260" >
  <font-face 
    font-family="MetaNormal-Roman"
    font-weight="400"
    font-stretch="normal"
    units-per-em="1000"
    panose-1="2 11 5 2 3 0 0 2 0 4"
    ascent="800"
    descent="-200"
    x-height="498"
    cap-height="686"
    bbox="-150 -208 1178 925"
    underline-thickness="20"
    underline-position="-122"
    unicode-range="U+0020-U+FB02"
  />
<missing-glyph horiz-adv-x="546" 
d="M71 686h404v-686h-404v686zM425 50v586h-304v-586h304z" />
    <glyph glyph-name=".notdef" horiz-adv-x="546" 
d="M71 686h404v-686h-404v686zM425 50v586h-304v-586h304z" />
    <glyph glyph-name=".null" horiz-adv-x="0" 
 />
    <glyph glyph-name="nonmarkingreturn" horiz-adv-x="230" 
 />
    <glyph glyph-name="space" unicode=" " horiz-adv-x="230" 
 />
    <glyph glyph-name="dollar" unicode="$" horiz-adv-x="569" 
d="M428 182q0 84 -108 122v-246q24 4 44 15t34 27.5t22 37.5t8 44zM261 631q-48 -8 -74.5 -36.5t-26.5 -73.5q0 -39 23.5 -64t77.5 -45v219zM519 194q0 -37 -15 -71t-41.5 -62t-63 -46.5t-79.5 -24.5v-97h-59v94q-60 0 -111 16t-100 46l36 64q42 -29 84 -44t91 -15v269
l-25 8q-47 15 -74.5 28t-47.5 33q-43 46 -43 112q0 81 51.5 133.5t138.5 61.5v84h59v-83q96 -8 180 -65l-36 -59q-43 28 -75.5 41t-68.5 16v-239l33 -10q46 -14 73 -29.5t48 -39.5t33 -56.5t12 -64.5z" />
    <glyph glyph-name="percent" unicode="%" horiz-adv-x="848" 
d="M295 511q0 22 -3 44.5t-13 40.5t-29 29t-51 11q-48 0 -69.5 -28t-21.5 -79q0 -62 21 -93.5t75 -31.5q43 0 67 27t24 80zM741 152q0 22 -3 44.5t-13 40.5t-29 29t-51 11q-48 0 -69.5 -28t-21.5 -79q0 -62 21 -93.5t75 -31.5q43 0 67 27t24 80zM362 515q0 -77 -43 -121.5
t-118 -44.5t-118 46t-43 126t42.5 125t117.5 45q83 0 122.5 -49t39.5 -127zM293 0h-66l333 681h66zM808 156q0 -77 -43 -121.5t-118 -44.5t-118 46t-43 126t42.5 125t117.5 45q83 0 122.5 -49t39.5 -127z" />
    <glyph glyph-name="ampersand" unicode="&#x26;" horiz-adv-x="674" 
d="M247 303q-101 -48 -101 -139q0 -53 39.5 -85.5t108.5 -32.5q51 0 91 19t60 45zM379 503q0 42 -27 69t-70 27q-18 0 -35 -5t-30.5 -16.5t-21.5 -28.5t-8 -41q0 -14 3.5 -27t13.5 -27t27.5 -32t45.5 -42q59 28 80.5 57.5t21.5 65.5zM555 0l-67 65q-30 -37 -83 -58.5
t-113 -21.5q-54 0 -97 13.5t-73 38t-46 58.5t-16 75q0 33 9.5 58t27.5 45.5t44 37.5t59 33q-49 44 -73 80t-24 74q0 34 14.5 63t39 50t57 33t67.5 12q37 0 70.5 -10t58.5 -29.5t40 -48.5t15 -66q0 -29 -9.5 -51.5t-27.5 -41.5t-45 -36.5t-61 -35.5l161 -159q14 29 16 71.5
t1 82.5h69q0 -45 -2.5 -77t-7.5 -55t-12 -40.5t-15 -33.5l127 -126h-104z" />
    <glyph glyph-name="quoteright" unicode="&#x2019;" 
d="M200 602q0 -26 -10 -52.5t-28 -50.5q-15 -20 -38 -38t-46 -31l-28 44q59 29 67 89q-5 -1 -11 -1q-23 0 -39 19t-16 45q0 30 20.5 51t49.5 21q35 0 57 -27t22 -69z" />
    <glyph glyph-name="parenleft" unicode="(" horiz-adv-x="315" 
d="M323 -155q-63 24 -113.5 78t-79.5 128q-11 29 -19 64t-12.5 71t-6.5 70.5t-2 64.5q0 65 6.5 116.5t19 93t30 74.5t39.5 60q28 35 64.5 63t73.5 42l19 -38q-51 -30 -89 -71t-57 -108q-13 -46 -19.5 -105t-6.5 -125q0 -97 12.5 -180.5t47.5 -145.5q21 -37 48 -63.5
t67 -48.5z" />
    <glyph glyph-name="parenright" unicode=")" horiz-adv-x="315" 
d="M225 296q0 -65 -6.5 -116.5t-19 -93t-30 -74.5t-39.5 -60q-28 -35 -64.5 -63t-73.5 -42l-19 38q51 30 89 71t57 108q13 46 19.5 105t6.5 125q0 97 -12.5 180.5t-47.5 145.5q-21 37 -48 63.5t-67 48.5l22 40q63 -24 113.5 -78t79.5 -128q11 -29 19 -64t12.5 -71t6.5 -70.5
t2 -64.5z" />
    <glyph glyph-name="asterisk" unicode="*" horiz-adv-x="462" 
d="M281 501l89 -119l-49 -38l-90 123l-87 -123l-50 38l87 119l-141 48l19 58l142 -48v149h60v-149l142 48l19 -58z" />
    <glyph glyph-name="plus" unicode="+" horiz-adv-x="528" 
d="M300 214v-178h-72v178h-178v72h178v178h72v-178h178v-72h-178z" />
    <glyph glyph-name="comma" unicode="," horiz-adv-x="280" 
d="M210 29q0 -26 -10 -52.5t-28 -50.5q-15 -20 -38 -38t-46 -31l-28 44q59 29 67 89l-3 -0.5t-8 -0.5q-23 0 -39 19t-16 45q0 30 20.5 51t49.5 21q35 0 57 -27t22 -69z" />
    <glyph glyph-name="hyphen" unicode="-" horiz-adv-x="291" 
d="M50 229v76h191v-76h-191z" />
    <glyph glyph-name="period" unicode="." horiz-adv-x="274" 
d="M204 56q0 -29 -19.5 -49t-46.5 -20q-29 0 -48.5 20t-19.5 49q0 28 19 47t47 19q29 0 48.5 -19t19.5 -47z" />
    <glyph glyph-name="slash" unicode="/" horiz-adv-x="445" 
d="M126 -148h-66l259 905h66z" />
    <glyph glyph-name="zero" unicode="0" horiz-adv-x="568" 
d="M426 241q0 113 -34 163t-110 50q-69 0 -104.5 -44t-35.5 -139q0 -113 34 -163t110 -50q69 0 104.5 44t35.5 139zM508 254q0 -61 -16 -109.5t-45 -82t-70 -51.5t-92 -18q-54 0 -95.5 18.5t-70.5 52.5t-44 83t-15 111q0 61 16 109t45 82t70 52t92 18q54 0 95.5 -18.5
t70.5 -52.5t44 -83.5t15 -110.5z" />
    <glyph glyph-name="one" unicode="1" horiz-adv-x="424" 
d="M111 0v63h92v349q-32 -21 -66.5 -35.5l-69.5 -28.5l-17 43l171 116h61v-444h92v-63h-263z" />
    <glyph glyph-name="two" unicode="2" horiz-adv-x="542" 
d="M456 0h-382v63q2 1 13 9t29.5 23l34.5 28l121 101q25 21 41 38t25.5 33.5t13.5 33t4 34.5q0 42 -27.5 64.5t-78.5 22.5q-17 0 -34.5 -3t-36 -10.5t-40 -20t-47.5 -31.5l-32 40q57 49 106 71t104 22q39 0 71.5 -9.5t56.5 -28t37.5 -45.5t13.5 -61q0 -31 -11 -59t-35 -57
t-62.5 -61.5t-93.5 -71.5l-90 -65q18 2 47.5 3t55.5 1h212z" />
    <glyph glyph-name="three" unicode="3" horiz-adv-x="516" 
d="M456 51q0 -28 -9 -54t-24 -49.5t-35.5 -42.5t-44.5 -33q-51 -30 -110 -42t-117 -12q-23 0 -36 1.5l-13 1.5l-18 53l16 -1.5t46 -1.5q70 0 119 17.5t80 45t44.5 60.5t13.5 64q0 34 -13.5 57t-30.5 35q-26 19 -54 24.5t-70 5.5h-46v56h14t32.5 0.5l36.5 1t27 1.5
q47 7 68 35t21 68q0 49 -32.5 78.5t-86.5 29.5q-17 0 -34 -2.5t-36 -9t-40.5 -18t-48.5 -29.5l-35 41q48 39 99.5 61t108.5 22q42 0 76.5 -12t60 -33.5t39.5 -51.5t14 -66q0 -54 -32 -93t-89 -55q66 -15 102.5 -57t36.5 -96z" />
    <glyph glyph-name="four" unicode="4" horiz-adv-x="535" 
d="M440 0q-8 0 -17.5 0.5l-9.5 0.5l0.5 -9.5t0.5 -19.5v-148l-77 -23v160q0 9 0.5 24.5l0.5 15.5l-15 -0.5t-25 -0.5h-258v62l230 450h87l-191 -374l-19.5 -36.5t-17 -30t-7.5 -12.5l12.5 1.5t26.5 1.5h177v29q0 15 1 42t3 48l10 140l62 19v-201q0 -39 -0.5 -58.5
l-0.5 -19.5l11 1t22 1h49v-63h-55z" />
    <glyph glyph-name="five" unicode="5" horiz-adv-x="492" 
d="M432 53q0 -54 -23.5 -98t-63 -75t-92 -48t-110.5 -17q-23 0 -38.5 2.5t-35.5 7.5l-14 60q14 -6 32 -10t43 -4q45 0 84.5 14t69 38.5t46 58t16.5 71.5q0 63 -39.5 96.5t-109.5 33.5q-37 0 -71 -6t-56 -16l32 337h296l-12 -66h-213l-17 -194l21.5 2.5t46.5 2.5
q43 0 81 -12.5t66 -36.5t44.5 -59.5t16.5 -81.5z" />
    <glyph glyph-name="six" unicode="6" horiz-adv-x="565" 
d="M415 199q0 69 -36 104t-89 35q-34 0 -68.5 -13.5t-66.5 -39.5l-1.5 -16.5t-1.5 -34.5q0 -47 8 -81.5t27 -59.5q36 -49 98 -49q60 0 95 41.5t35 113.5zM505 201q0 -47 -17 -86.5t-46.5 -69t-69.5 -46t-87 -16.5q-51 0 -92.5 19.5t-71 55t-45.5 85.5t-16 112q0 78 23.5 141
t72.5 122q61 72 128.5 112t141.5 62l19 -50q-41 -13 -77 -32t-66.5 -42t-54.5 -48.5t-40 -50.5q-13 -20 -22 -42t-14.5 -40t-8 -29.5l-2.5 -11.5q26 24 65.5 38t80.5 14q36 0 71.5 -13t64 -37.5t46 -61.5t17.5 -85z" />
    <glyph glyph-name="seven" unicode="7" horiz-adv-x="495" 
d="M446 419q-100 -138 -179 -289q-15 -28 -31.5 -64t-31.5 -75t-27.5 -77t-19.5 -71l-96 -25q5 37 22 84t38 95t43 91.5l37 72.5q48 88 96 159t89 114q-2 0 -16 -0.5t-36.5 -1t-39.5 -0.5h-264l19 66h416z" />
    <glyph glyph-name="eight" unicode="8" horiz-adv-x="568" 
d="M426 161q0 21 -5.5 40.5t-18.5 33.5q-17 18 -51.5 36.5t-100.5 48.5q-23 -12 -43 -25.5t-35 -30.5t-23.5 -39t-8.5 -52q0 -60 40.5 -95.5t107.5 -35.5q62 0 100 33t38 86zM410 507q0 46 -34 73.5t-92 27.5q-57 0 -91 -27.5t-34 -74.5q0 -15 4.5 -30.5t19 -32t41.5 -33.5
t71 -34q61 32 88 63.5t27 67.5zM508 180q0 -39 -16 -74t-45 -62t-71 -42.5t-94 -15.5q-54 0 -95 14.5t-69.5 39.5t-43 58t-14.5 70t13 66t33.5 50.5t45.5 36t49 23.5q-57 26 -87.5 66.5t-30.5 88.5q0 74 54.5 120t156.5 46q43 0 78.5 -11t60.5 -31t39 -48t14 -62
q0 -32 -11.5 -57t-30 -44t-43 -33.5t-50.5 -26.5q31 -14 59 -28t50 -32.5t35 -45.5t13 -66z" />
    <glyph glyph-name="nine" unicode="9" horiz-adv-x="563" 
d="M417 268q0 41 -9.5 74.5t-27 57.5t-42 37.5t-54.5 13.5q-60 0 -96 -44t-36 -116t33 -111.5t90 -39.5q35 0 67 13t67 42q4 17 6 35t2 38zM503 269q0 -85 -33.5 -168t-92.5 -151q-30 -35 -67 -62.5t-76 -47.5t-76.5 -32t-67.5 -15l-40 48q27 3 57 13t60 25t58 34t52 39
q48 41 75 85t41 85q-23 -17 -58.5 -29.5t-69.5 -12.5q-44 0 -80.5 15.5t-63 43t-41.5 66t-15 84.5q0 48 17.5 89t47.5 71t71 47t88 17q45 0 84 -17t68 -48.5t45.5 -76.5t16.5 -102z" />
    <glyph glyph-name="colon" unicode=":" horiz-adv-x="294" 
d="M214 56q0 -29 -19.5 -48.5t-48.5 -19.5q-28 0 -47 19.5t-19 47.5q0 29 19.5 48.5t48.5 19.5q27 0 46.5 -19.5t19.5 -47.5zM214 372q0 -29 -19.5 -48.5t-47.5 -19.5t-47.5 19t-19.5 47q0 29 19.5 49t48.5 20q27 0 46.5 -19.5t19.5 -47.5z" />
    <glyph glyph-name="semicolon" unicode=";" horiz-adv-x="310" 
d="M230 29q0 -26 -10 -52.5t-28 -50.5q-15 -20 -38 -38t-46 -31l-28 44q59 29 67 89l-3 -0.5t-8 -0.5q-23 0 -39 19t-16 45q0 30 20.5 51t49.5 21q35 0 57 -27t22 -69zM215 372q0 -29 -19.5 -49t-47.5 -20t-48 21t-20 50q0 26 19.5 45t47.5 19t48 -19.5t20 -46.5z" />
    <glyph glyph-name="less" unicode="&#x3c;" horiz-adv-x="317" 
d="M211 43l-191 257l191 257l66 -43l-160 -214l160 -214z" />
    <glyph glyph-name="equal" unicode="=" horiz-adv-x="622" 
d="M50 192v66h522v-66h-522zM50 348v66h522v-66h-522z" />
    <glyph glyph-name="greater" unicode="&#x3e;" horiz-adv-x="318" 
d="M106 43l-66 43l160 214l-160 214l66 43l192 -257z" />
    <glyph glyph-name="question" unicode="?" horiz-adv-x="428" 
d="M270 55q0 -29 -19.5 -49t-47.5 -20t-48 20t-20 49q0 28 19.5 47.5t47.5 19.5t48 -19.5t20 -47.5zM378 548q0 -37 -14 -65t-32.5 -48t-35.5 -32t-23 -17q-69 -55 -44 -164h-67q-14 58 -5 109t52 92q15 14 30.5 25t29 23.5t22 29.5t8.5 43q0 37 -25.5 60t-64.5 23
q-36 0 -67.5 -11.5t-68.5 -34.5l-33 55q35 27 85 43t99 16q69 0 111.5 -40t42.5 -107z" />
    <glyph glyph-name="at" unicode="@" horiz-adv-x="911" 
d="M566 387q-10 6 -22.5 10t-28.5 4q-51 0 -86.5 -25t-58 -64t-32.5 -85.5t-10 -89.5q0 -44 15.5 -62t46.5 -18q18 0 38.5 8.5t39.5 26t34.5 44t23.5 62.5zM851 277q0 -66 -17.5 -120t-47.5 -92t-69.5 -58.5t-82.5 -20.5q-35 0 -56.5 11t-33.5 28t-14.5 37.5t0.5 40.5
q-11 -20 -28 -39t-38 -33.5t-45.5 -23.5t-49.5 -9q-20 0 -40 8.5t-36 26.5t-25.5 45t-9.5 63q0 60 17 116t50 99.5t82.5 70t114.5 26.5q36 0 66.5 -9t56.5 -23q-5 -16 -11.5 -43l-11.5 -49l-38 -181q-13 -60 -1 -84.5t54 -24.5q30 0 56.5 18.5t45.5 51t30 75.5t11 93
q0 62 -23 115.5t-64.5 93.5t-99.5 62.5t-129 22.5q-76 0 -137 -31t-104.5 -82t-67 -117t-23.5 -137q0 -70 24.5 -128t67 -99t100 -64t122.5 -23q41 0 76.5 5.5t60.5 13.5l13 -54q-29 -10 -68.5 -15t-81.5 -5q-78 0 -148 24t-123 71t-84 116t-31 158q0 88 30 165t84 134
t128 89.5t162 32.5q82 0 152.5 -24.5t122.5 -70t82 -110t30 -143.5z" />
    <glyph glyph-name="A" unicode="A" horiz-adv-x="573" 
d="M284 614l-108 -336h213zM475 0l-65 211h-256l-66 -211h-83l229 686h107l227 -686h-93z" />
    <glyph glyph-name="B" unicode="B" horiz-adv-x="599" 
d="M453 195q0 45 -23 79t-60 42q-14 3 -34 5t-46 2h-121v-256h146q76 0 107 33t31 95zM419 503q0 41 -21.5 70t-56.5 38q-14 4 -31.5 5t-43.5 1h-97v-226h119q28 0 47.5 2.5t33 9.5t22.5 18.5t17 28.5q11 25 11 53zM539 188q0 -57 -28 -102.5t-79 -65.5q-14 -5 -27 -9
t-31 -6.5t-43.5 -3.5t-63.5 -1h-177v686h99q51 0 84.5 -0.5t55.5 -2.5t36.5 -5t27.5 -7q53 -18 85 -61t32 -96q0 -54 -32 -92.5t-91 -57.5q32 -6 52.5 -14t37.5 -22q34 -26 48 -64t14 -76z" />
    <glyph glyph-name="C" unicode="C" horiz-adv-x="563" 
d="M533 45q-42 -27 -91 -41.5t-100 -14.5q-56 0 -108 23t-92 68q-44 50 -63 117t-19 144q0 76 21.5 141t60 112.5t91.5 74t115 26.5q50 0 94 -14.5t79 -41.5l-44 -53q-31 23 -61.5 33t-68.5 10q-60 0 -102 -30t-67 -88q-15 -35 -22 -78t-7 -104q0 -50 5 -82.5t17 -62.5
q26 -65 75.5 -96.5t108.5 -31.5q38 0 69.5 10.5t64.5 33.5z" />
    <glyph glyph-name="D" unicode="D" horiz-adv-x="623" 
d="M474 332q0 77 -12.5 130t-46.5 94q-17 20 -34 32.5t-36.5 19t-41.5 9t-49 2.5h-82v-551h82q27 0 52 2t47.5 9.5t41.5 22t33 38.5q23 40 34.5 89t11.5 103zM563 342q0 -91 -21.5 -154.5t-56.5 -101.5q-23 -25 -46 -41.5t-48.5 -26.5t-55.5 -14t-66 -4h-179v686h137
q39 0 69 -1.5t55 -7t48 -16t48 -28.5q59 -42 87.5 -116t28.5 -175z" />
    <glyph glyph-name="E" unicode="E" horiz-adv-x="510" 
d="M90 0v686h375l-11 -68h-281v-225h235v-71h-235v-251h302v-71h-385z" />
    <glyph glyph-name="F" unicode="F" horiz-adv-x="431" 
d="M438 618h-265v-225h220v-67h-220v-326h-83v686h361z" />
    <glyph glyph-name="G" unicode="G" horiz-adv-x="629" 
d="M549 41q-37 -24 -88.5 -38t-104.5 -14q-131 0 -211 86q-44 48 -64.5 112.5t-20.5 153.5q0 99 26 169.5t80 118.5q72 65 179 65q109 0 188 -68l-37 -51q-42 29 -75.5 41t-73.5 12q-60 0 -105 -28t-66 -88q-27 -77 -27 -174q0 -68 12.5 -121t35.5 -87q12 -17 30 -30.5
t40 -23t47 -14.5t49 -5q65 0 109 27v209h-138l-16 68h231v-320z" />
    <glyph glyph-name="H" unicode="H" horiz-adv-x="631" 
d="M459 0v332h-289v-332h-80v686h80v-287h289v287h82v-686h-82z" />
    <glyph glyph-name="I" unicode="I" 
d="M90 0v686h80v-686h-80z" />
    <glyph glyph-name="J" unicode="J" horiz-adv-x="269" 
d="M179 117q0 -33 -1 -56t-3.5 -41t-7.5 -32t-13 -28q-34 -60 -116 -88l-40 51q28 11 49.5 29t32.5 38q10 17 13.5 44.5t3.5 80.5v571h82v-569z" />
    <glyph glyph-name="K" unicode="K" horiz-adv-x="546" 
d="M90 0v686h83v-686h-83zM270 364l274 -364h-105l-262 363l264 323h105z" />
    <glyph glyph-name="L" unicode="L" horiz-adv-x="453" 
d="M432 0h-342v686h82v-617h271z" />
    <glyph glyph-name="M" unicode="M" horiz-adv-x="796" 
d="M649 0l-40 503q-1 16 -2 36.5t-1.5 38.5t-1 30l-0.5 12q-1 -2 -4.5 -18t-10 -42l-12.5 -48l-147 -512h-70l-136 487q-17 58 -25.5 96l-8.5 38l-1 -15t-2 -36t-2.5 -43.5l-2.5 -38.5l-38 -488h-79l60 686h120l125 -448q14 -50 20.5 -85l6.5 -35l1.5 9.5t5 25l8 36
t10.5 41.5l129 456h121l59 -686h-82z" />
    <glyph glyph-name="N" unicode="N" horiz-adv-x="636" 
d="M460 0l-220 420q-17 31 -31 60.5l-24.5 53l-16.5 37.5l-6 14l1.5 -16.5t3 -43.5t3 -60.5t1.5 -66.5l4 -398h-85v686h95l228 -438l25 -51.5t20.5 -46l13.5 -33.5l5 -13l-1.5 18.5t-3 48.5t-3 67.5t-1.5 74.5l-3 373h81v-686h-86z" />
    <glyph glyph-name="O" unicode="O" horiz-adv-x="671" 
d="M519 320q0 76 -8 129t-25 89q-18 38 -55.5 66t-97.5 28q-48 0 -87.5 -21.5t-59.5 -58.5q-18 -34 -26.5 -79.5t-8.5 -109.5q0 -78 12 -141t32 -98q10 -17 26 -30.5t35.5 -23t41.5 -15t43 -5.5q42 0 73.5 15t54.5 44q13 16 22.5 35t15.5 44t9 57.5t3 74.5zM611 332
q0 -99 -24 -165t-76 -114q-38 -35 -79 -50.5t-95 -15.5q-63 0 -111.5 23.5t-83.5 63.5q-82 94 -82 272q0 82 19 147t54 110.5t86 70t114 24.5q45 0 79.5 -10.5t60.5 -27t45 -36.5t31 -38q32 -48 47 -109.5t15 -144.5z" />
    <glyph glyph-name="P" unicode="P" horiz-adv-x="538" 
d="M427 474q0 75 -40 109q-21 18 -51 26t-79 8h-87v-277h115q44 0 67 8.5t40 28.5q35 39 35 97zM518 490q0 -53 -14 -92.5t-48 -70.5q-35 -31 -74 -42.5t-92 -11.5h-120v-273h-80v686h190q56 0 89 -7t61 -25q88 -58 88 -164z" />
    <glyph glyph-name="Q" unicode="Q" horiz-adv-x="671" 
d="M520 320q0 76 -8.5 129t-25.5 89q-8 17 -21 34t-31.5 30.5t-43 21.5t-57.5 8q-48 0 -86.5 -22t-58.5 -58q-19 -34 -28 -79.5t-9 -109.5q0 -78 12.5 -141t32.5 -98q20 -34 60.5 -54t85.5 -20q42 0 73 14.5t54 44.5q13 16 22.5 36t16 45t9.5 57t3 73zM665 -115
q-18 -9 -59 -9q-16 0 -34 5.5t-35.5 13t-33.5 16.5t-28 17l-32.5 20t-30.5 15.5t-35 12.5t-47 11q-64 0 -110 26t-77 61q-83 95 -83 272q0 82 19 147t54 110.5t86 70t114 24.5q40 0 73.5 -9t60.5 -24.5t47.5 -36t34.5 -42.5q32 -50 47.5 -110.5t15.5 -143.5
q0 -99 -24.5 -164.5t-76.5 -114.5q-21 -19 -44 -33q21 -7 46.5 -21.5l45.5 -25.5q14 -8 37.5 -18t54.5 -10q14 0 25.5 1.5t15.5 3.5z" />
    <glyph glyph-name="R" unicode="R" horiz-adv-x="546" 
d="M405 499q0 34 -19 63t-48 41q-17 7 -37.5 10.5t-48.5 3.5h-79v-256h73q46 0 75 8.5t49 26.5q17 16 26 42.5t9 60.5zM423 0q-8 17 -23 44.5t-37.5 62t-51.5 75l-63 84.5q-20 25 -35.5 34t-40.5 10v-310h-82v686h160q35 0 62 -3t47.5 -9t36 -14t27.5 -18q12 -9 24 -22.5
t21.5 -31.5t16 -40.5t6.5 -49.5q0 -42 -13 -77t-37 -59.5t-57.5 -38t-74.5 -13.5h-10q24 -20 41 -41.5l28 -35.5q9 -12 28 -39.5l40.5 -59.5l42.5 -63.5l33.5 -50t13.5 -20.5h-103z" />
    <glyph glyph-name="S" unicode="S" horiz-adv-x="569" 
d="M519 194q0 -48 -24.5 -92t-70.5 -73q-34 -22 -70 -32t-84 -10q-62 0 -115.5 15t-104.5 47l36 64q43 -31 87.5 -45t96.5 -14q39 0 63 6.5t46 23.5q49 37 49 98q0 91 -123 128l-69 21q-47 14 -74.5 27t-47.5 34q-43 46 -43 112q0 44 16 80t45 62t70 40.5t91 14.5
q109 0 207 -66l-36 -59q-25 16 -46 27t-40.5 18t-39 10t-41.5 3q-65 0 -101 -30t-36 -83q0 -42 26.5 -67t87.5 -45l79 -25q46 -14 73 -29.5t48 -39.5t33 -56.5t12 -64.5z" />
    <glyph glyph-name="T" unicode="T" horiz-adv-x="454" 
d="M469 617h-186v-617h-79v617h-184v69h454z" />
    <glyph glyph-name="U" unicode="U" horiz-adv-x="625" 
d="M540 198q0 -62 -10.5 -96.5t-41.5 -60.5q-32 -27 -74.5 -40t-105.5 -13q-80 0 -127.5 24t-75.5 75q-14 25 -17 54.5t-3 52.5v492h81v-462q0 -26 2.5 -54.5t9.5 -44.5q5 -11 14.5 -23t25.5 -22t39 -16t55 -6q43 0 74 11t47 32q17 23 21.5 47.5t4.5 59.5v478h81v-488z" />
    <glyph glyph-name="V" unicode="V" horiz-adv-x="567" 
d="M322 0h-81l-231 686h89l145 -442l14 -46.5t12.5 -45t9 -38t4.5 -23.5q3 13 13.5 50t28.5 93l147 452h84z" />
    <glyph glyph-name="W" unicode="W" horiz-adv-x="812" 
d="M635 0h-107l-85 381q-9 41 -16 76.5t-11.5 62t-6.5 41.5l-2 15l-2.5 -16t-7 -42t-11 -60.5t-14.5 -70.5l-84 -387h-106l-162 686h88l87 -401l14 -71t12 -67.5t8 -50.5l3 -20l3.5 20l9 49.5l12.5 64.5t14 65l91 411h93l95 -426q9 -39 15.5 -73l11 -58.5t6.5 -38.5l2 -14
l3 18.5t8.5 48.5l13 68l15.5 77l85 398h82z" />
    <glyph glyph-name="X" unicode="X" horiz-adv-x="536" 
d="M432 0l-170 315l-161 -315h-96l203 368l-182 318h97l137 -254l131 254h96l-172 -312l216 -374h-99z" />
    <glyph glyph-name="Y" unicode="Y" horiz-adv-x="509" 
d="M296 267v-267h-85v272l-221 414h101l130 -262l17.5 -37.5t12.5 -28.5t5 -11l11 23.5l26 53.5l132 262h94z" />
    <glyph glyph-name="Z" unicode="Z" horiz-adv-x="508" 
d="M447 0h-407v63l293 489q20 32 32 49l12 17l-19.5 -0.5t-51.5 -0.5h-256l23 69h391v-70l-285 -481q-17 -29 -29.5 -47.5l-12.5 -18.5l18 0.5t41 0.5h272z" />
    <glyph glyph-name="bracketleft" unicode="[" horiz-adv-x="275" 
d="M90 -156v888h165v-60h-93v-768h93v-60h-165z" />
    <glyph glyph-name="backslash" unicode="\" horiz-adv-x="404" 
d="M321 -43l-301 769l63 24l301 -768z" />
    <glyph glyph-name="bracketright" unicode="]" horiz-adv-x="275" 
d="M20 -156v60h93v768h-93v60h165v-888h-165z" />
    <glyph glyph-name="asciicircum" unicode="^" horiz-adv-x="626" 
d="M492 275l-179 349l-179 -349h-74l223 433h60l223 -433h-74z" />
    <glyph glyph-name="underscore" unicode="_" horiz-adv-x="500" 
d="M0 -125v50h500v-50h-500z" />
    <glyph glyph-name="quoteleft" unicode="&#x2018;" 
d="M210 667q-59 -29 -67 -89q5 1 11 1q23 0 39 -19t16 -45q0 -30 -20.5 -51t-49.5 -21q-35 0 -57 27t-22 69q0 26 10 52.5t28 50.5q15 20 38 38t46 31z" />
    <glyph glyph-name="a" unicode="a" horiz-adv-x="519" 
d="M352 253q-10 1 -19 1.5t-20 0.5q-47 0 -80 -8t-53 -23t-29 -37.5t-9 -50.5q0 -91 86 -91q38 0 71 21.5t50 56.5zM427 -19q-26 8 -43.5 27.5t-24.5 45.5q-36 -36 -68.5 -51.5t-75.5 -15.5q-46 0 -77 13t-49.5 33t-26 45.5t-7.5 50.5q0 85 69 132t195 47q16 0 25.5 -0.5
l9.5 -0.5v35q0 33 -2.5 49.5t-13.5 28.5q-12 14 -28 20.5t-39 6.5q-21 0 -44 -5t-44.5 -13.5t-40 -19t-30.5 -21.5l-39 56q100 67 209 67q106 0 138 -78q8 -20 10 -48t1 -62l-4 -164q-1 -30 0 -50t5.5 -33.5t12.5 -22.5t22 -16z" />
    <glyph glyph-name="b" unicode="b" horiz-adv-x="562" 
d="M415 261q0 50 -6.5 81t-22.5 53q-14 20 -39.5 31.5t-54.5 11.5q-37 0 -71 -18.5t-54 -46.5v-256q20 -26 54 -43t69 -17q26 0 51 12t39 32t24.5 58.5t10.5 101.5zM502 256q0 -60 -14 -109.5t-40 -84.5t-62.5 -54.5t-81.5 -19.5q-39 0 -77.5 19t-59.5 47q-2 -16 -4 -27.5
t-10 -26.5h-78q8 18 11.5 45.5t3.5 78.5v490q0 49 -6.5 75.5l-6.5 26.5l78 15l6.5 -30.5t6.5 -87.5v-116q0 -19 -1 -37l-1 -18q37 36 70 51.5t73 15.5q45 0 80.5 -17.5t60.5 -50.5t38.5 -80t13.5 -105z" />
    <glyph glyph-name="c" unicode="c" horiz-adv-x="459" 
d="M419 55q-35 -35 -70 -50.5t-82 -15.5q-107 0 -159 75q-25 36 -36.5 78.5t-11.5 98.5q0 82 21.5 131t53.5 81q58 58 135 58q47 0 78 -16t58 -38l-43 -54q-26 22 -46 31t-49 9t-54.5 -15t-39.5 -41q-28 -52 -28 -163q0 -85 31.5 -129t91.5 -44q62 0 107 54z" />
    <glyph glyph-name="d" unicode="d" horiz-adv-x="561" 
d="M392 391q-19 26 -47.5 39t-73.5 13q-61 0 -93 -52q-18 -29 -25 -60t-7 -84q0 -44 4 -76t16 -54q17 -31 41 -44.5t59 -13.5q31 0 51.5 7.5t44.5 24.5q16 11 23 23.5l7 12.5v264zM406 0l-5 15.5t-6 35.5q-27 -31 -57.5 -44.5t-74.5 -13.5q-97 0 -150 66t-53 186
q0 160 103 231q24 17 46.5 24t49.5 7q42 0 77 -16.5t58 -46.5v12t-0.5 29t-0.5 36v209l78 -13v-556q0 -65 3.5 -102t11.5 -59h-80z" />
    <glyph glyph-name="e" unicode="e" horiz-adv-x="511" 
d="M378 295q-1 41 -6.5 67t-16.5 44q-13 20 -37 32t-53 12q-109 0 -115 -155h228zM150 236v-12q0 -35 5 -62t18 -47q21 -32 53.5 -46.5t70.5 -14.5q71 0 122 47l30 -50q-33 -30 -76.5 -46t-91.5 -16q-104 0 -162.5 70.5t-58.5 194.5q0 63 14 106.5t46 81.5q59 69 149 69
q83 0 135 -54q16 -17 27 -35t17.5 -42t9.5 -56t3 -77v-11h-311z" />
    <glyph glyph-name="f" unicode="f" horiz-adv-x="293" 
d="M314 640q-14 8 -34 15.5t-40 7.5q-68 0 -68 -88v-77h138l-24 -59h-114v-439h-82v439h-48v59h48v78q0 28 5.5 48t14 34.5t18 24t17.5 15.5q35 26 88 26q66 0 110 -29z" />
    <glyph glyph-name="g" unicode="g" horiz-adv-x="504" 
d="M330 344q0 51 -21 75.5t-71 24.5q-94 0 -94 -103q0 -48 24 -73.5t72 -25.5q90 0 90 102zM509 454q-23 -17 -42 -23.5t-42 -6.5q-21 0 -34 6q30 -38 30 -85q0 -42 -19.5 -78.5t-54.5 -58.5q-19 -12 -42.5 -17t-50.5 -5q-51 -18 -70.5 -31.5t-19.5 -26.5q0 -24 40 -24h80
q44 0 70.5 -6t49.5 -22q29 -20 42 -46.5t13 -58.5q0 -81 -53.5 -119t-144.5 -38q-59 0 -100 10t-66.5 27t-37.5 40t-12 50q0 14 2.5 26t7.5 27l82 7q-5 -8 -9.5 -20.5t-4.5 -24.5q0 -40 29 -58q18 -11 44.5 -17t56.5 -6q58 0 89.5 20t31.5 67q0 42 -27 60q-14 10 -37.5 14
t-60.5 4h-19q-10 0 -21 -0.5t-21 -0.5h-16q-45 0 -69.5 19t-24.5 53q0 30 19.5 49.5t70.5 35.5q-51 16 -81.5 55t-30.5 89q0 37 13.5 68t37.5 53.5t58 34.5t75 12q28 0 47 -4.5t34.5 -9.5t31.5 -9.5t39 -4.5q20 0 35.5 5t33.5 17z" />
    <glyph glyph-name="h" unicode="h" horiz-adv-x="557" 
d="M390 0v344q0 28 -4 45.5t-15 28.5q-9 9 -24 14.5t-34 5.5q-36 0 -74.5 -22t-70.5 -62v-354h-78v614q0 49 -6.5 75.5l-6.5 26.5l78 15l6.5 -30.5t6.5 -87.5v-116q0 -24 -1.5 -46l-1.5 -22q34 32 76 55.5t90 23.5q45 0 81 -22t47 -57q5 -15 6.5 -30t1.5 -42v-357h-77z" />
    <glyph glyph-name="i" unicode="i" horiz-adv-x="261" 
d="M90 0v496l81 13v-509h-81zM193 652q0 -26 -17.5 -43.5t-43.5 -17.5t-43.5 17.5t-17.5 42.5q0 26 17.5 44t43.5 18t43.5 -17.5t17.5 -43.5z" />
    <glyph glyph-name="j" unicode="j" 
d="M170 10q0 -32 -3 -61t-11 -49q-14 -35 -40.5 -58.5t-61.5 -39.5l-39 52q26 11 41 26t22.5 34.5t9.5 44.5t2 58v477l80 16v-500zM191 652q0 -26 -17.5 -43.5t-43.5 -17.5t-43.5 17.5t-17.5 43.5t17.5 43.5t43.5 17.5t43.5 -17.5t17.5 -43.5z" />
    <glyph glyph-name="k" unicode="k" horiz-adv-x="504" 
d="M90 0v614q0 49 -6.5 75.5l-6.5 26.5l78 15l6.5 -30.5t6.5 -87.5v-613h-78zM400 0l-229 282l190 216h98l-196 -216l241 -282h-104z" />
    <glyph glyph-name="l" unicode="l" horiz-adv-x="259" 
d="M223 1q-15 -7 -24.5 -9t-25.5 -2q-37 0 -59 21q-12 11 -18 27.5t-6 43.5v528q0 49 -6 75.5l-6 26.5l78 15l6.5 -30.5t6.5 -87.5v-509q0 -29 5.5 -39.5t22.5 -10.5q2 0 6 1l4 1z" />
    <glyph glyph-name="m" unicode="m" horiz-adv-x="802" 
d="M632 0v368q0 73 -64 73q-34 0 -63.5 -20.5t-68.5 -56.5v-364h-79v354q0 23 -3 38t-11 26q-17 20 -51 20q-29 0 -58.5 -15.5t-68.5 -50.5v-372h-75v386q0 54 -9 80l-9 26l76 18q1 -1 5 -11t8.5 -28t4.5 -35q12 14 29 27.5t36.5 24t40 17t39.5 6.5q37 0 69.5 -21.5
t46.5 -61.5q36 38 79 60.5t81 22.5q56 0 90.5 -37.5t34.5 -97.5v-376h-80z" />
    <glyph glyph-name="n" unicode="n" horiz-adv-x="546" 
d="M377 0v337q0 20 -1 33t-3 22t-5.5 15.5t-8.5 12.5q-18 21 -55 21q-15 0 -33.5 -5.5t-37 -15t-36.5 -22.5t-31 -27v-371h-76v384q0 54 -9.5 79.5l-9.5 25.5l76 21q1 -1 5 -11t8.5 -28.5t4.5 -38.5q77 77 157 77q41 0 74 -20t48 -53q12 -27 12 -58v-378h-79z" />
    <glyph glyph-name="o" unicode="o" horiz-adv-x="539" 
d="M395 235q0 103 -23 150q-16 33 -45.5 48.5t-60.5 15.5q-33 0 -61 -14.5t-41 -39.5q-12 -23 -18 -54t-6 -76q0 -53 8.5 -96.5t22.5 -66.5t41.5 -36.5t59.5 -13.5q39 0 67 19.5t41 55.5q8 23 11.5 47t3.5 61zM484 241q0 -62 -16 -109.5t-44.5 -79.5t-67.5 -48.5t-86 -16.5
q-103 0 -159 71t-56 194q0 122 56.5 191.5t155.5 69.5q63 0 104 -25t67 -62q23 -34 34.5 -79t11.5 -106z" />
    <glyph glyph-name="p" unicode="p" horiz-adv-x="559" 
d="M416 240q0 45 -6 82.5t-17 60.5q-12 26 -37 40.5t-55 14.5q-75 0 -133 -70v-251q57 -65 122 -65q35 0 63.5 17t41.5 45q11 24 16 54t5 72zM499 250q0 -60 -9.5 -99t-30.5 -73q-27 -44 -66 -67.5t-88 -23.5q-38 0 -74.5 15.5t-62.5 42.5v-238l-78 -15v598q0 57 -5.5 82
l-5.5 25l80 14l2.5 -17t2.5 -59q62 73 147 73q38 0 73.5 -16t59.5 -46q28 -35 41.5 -82t13.5 -114z" />
    <glyph glyph-name="q" unicode="q" horiz-adv-x="559" 
d="M394 372q-20 32 -55.5 51.5t-71.5 19.5q-32 0 -59 -16t-42 -45q-6 -12 -10.5 -25t-7.5 -28t-4 -33.5t-1 -43.5q0 -41 4 -68.5t10.5 -46t15 -30t17.5 -20.5q16 -15 35 -22t48 -7q38 0 69.5 20t51.5 57v237zM484 498l-7.5 -32.5t-7.5 -95.5v-557l-75 -16v259
q-56 -65 -140 -65q-35 0 -62 9.5t-52 30.5q-37 31 -58.5 79t-21.5 124q0 74 11 119.5t36 79.5q28 38 66 59t83 21q41 0 75 -17t66 -53q0 5 1 12.5t2.5 15.5l3 15.5t3.5 11.5h77z" />
    <glyph glyph-name="r" unicode="r" horiz-adv-x="314" 
d="M302 423q-10 4 -22 4q-47 0 -83 -36q-17 -17 -23 -32.5t-6 -46.5v-312h-78v384q0 55 -8.5 80.5l-8.5 25.5l78 21q1 -1 5 -11.5t8 -30t3 -39.5q27 38 64.5 60.5t75.5 22.5q10 0 18.5 -2.5l8.5 -2.5z" />
    <glyph glyph-name="s" unicode="s" horiz-adv-x="471" 
d="M421 148q0 -36 -13.5 -66t-38.5 -51.5t-59.5 -33.5t-76.5 -12q-48 0 -96.5 13.5t-86.5 36.5l30 58q77 -47 158 -47q46 0 73.5 23t27.5 63q0 34 -19.5 53.5t-62.5 28.5l-62 13q-62 13 -94 49t-32 88q0 34 13 62t36.5 48t56 31.5t71.5 11.5t79.5 -11t72.5 -29l-29 -58
q-33 16 -62.5 26t-62.5 10q-43 0 -68.5 -22.5t-25.5 -59.5q0 -29 16 -46.5t56 -25.5l66 -14q133 -28 133 -139z" />
    <glyph glyph-name="t" unicode="t" horiz-adv-x="310" 
d="M271 439h-104v-321q0 -42 13.5 -58t50.5 -16q17 0 27.5 2.5t21.5 7.5l11 -50q-38 -20 -88 -20q-20 0 -35.5 3.5t-29.5 10.5q-26 13 -37 37t-11 62v342h-65v59h65q0 18 1 40t2.5 41t3 32l1.5 13l82 18l-1.5 -13t-3.5 -34t-3.5 -46.5t-1.5 -50.5h125z" />
    <glyph glyph-name="u" unicode="u" horiz-adv-x="547" 
d="M441 -21q-25 20 -37 37.5t-17 42.5q-57 -76 -158 -76q-48 0 -81.5 19t-49.5 52q-7 14 -10 33t-3 41v366l77 15v-358q0 -35 6.5 -53.5t23.5 -30.5q12 -8 28 -12.5t33 -4.5q37 0 72 24.5t55 65.5v353l77 13v-363q0 -47 7.5 -70.5t26.5 -40.5z" />
    <glyph glyph-name="v" unicode="v" horiz-adv-x="463" 
d="M266 -5h-77l-179 499l80 17l116 -343q7 -20 12.5 -40.5l8.5 -31.5t3 -13h2l6 25t18 59l114 331h83z" />
    <glyph glyph-name="w" unicode="w" horiz-adv-x="685" 
d="M529 -4h-77l-99 350q-7 25 -10.5 40l-3.5 15h-2q0 -1 -1.5 -9.5t-4.5 -21l-5 -20.5l-100 -354h-73l-138 498l78 17l80 -329q8 -35 13 -59l5 -24h3l4.5 22.5t12.5 49.5l89 327h85l87 -331q3 -13 8 -31t8.5 -29t3.5 -13h2q0 2 2.5 13.5l6.5 28.5t6 27l79 335h82z" />
    <glyph glyph-name="x" unicode="x" horiz-adv-x="457" 
d="M362 0l-135 212l-135 -212h-92l186 276l-154 222h96l99 -166l96 166h91l-148 -222l191 -276h-95z" />
    <glyph glyph-name="y" unicode="y" horiz-adv-x="449" 
d="M268 -18q-12 -38 -26.5 -68.5t-33.5 -54.5t-43.5 -40t-57.5 -24l-23 53q24 7 41 18t30 28t23.5 43t20.5 64l-32 -5q-2 12 -8 34.5l-13 48.5t-15 51.5l-14 44.5l-107 312l77 26l102 -323q6 -18 11 -39.5l9.5 -40t7 -31.5l2.5 -13h2q1 2 5.5 18l12 41.5l13.5 45.5l98 327
h89z" />
    <glyph glyph-name="z" unicode="z" horiz-adv-x="449" 
d="M372 0h-332v60l271 376h-250v62h332v-64l-259 -374h275z" />
    <glyph glyph-name="braceleft" unicode="{" horiz-adv-x="321" 
d="M231 -156q-19 0 -37.5 8t-33.5 24t-24.5 39.5t-9.5 53.5v175q0 27 -7.5 48t-19.5 36t-27.5 22.5t-31.5 7.5v60q16 0 31.5 8t27.5 22.5t19.5 35.5t7.5 47v176q0 30 10 53.5t25 39.5t33.5 24t36.5 8h70v-60h-54q-16 0 -25.5 -6.5t-15 -18t-7 -25.5t-1.5 -29v-176
q0 -34 -10 -57.5t-24 -38.5t-28.5 -22.5t-23.5 -9.5v-2q9 -1 23.5 -7.5t28.5 -21t24 -39t10 -61.5v-175q0 -15 1.5 -29t7 -25t15 -18t25.5 -7h54v-60h-70z" />
    <glyph glyph-name="bar" unicode="|" horiz-adv-x="246" 
d="M90 -208v964h66v-964h-66z" />
    <glyph glyph-name="braceright" unicode="}" horiz-adv-x="321" 
d="M281 258q-16 0 -31.5 -7.5t-27.5 -22.5t-19.5 -36t-7.5 -48v-175q0 -30 -9.5 -53.5t-24.5 -39.5t-33.5 -24t-37.5 -8h-70v60h54q16 0 25.5 7t14.5 18t7 25t2 29v175q0 37 10 61.5t24 39t28.5 21t23.5 7.5v2q-9 2 -23.5 9.5t-28.5 22.5t-24 38.5t-10 57.5v176q0 15 -2 29
t-7 25.5t-14.5 18t-25.5 6.5h-54v60h70q18 0 36.5 -8t33.5 -24t25 -39.5t10 -53.5v-176q0 -26 7.5 -47t19.5 -35.5t27.5 -22.5t31.5 -8v-60z" />
    <glyph glyph-name="asciitilde" unicode="~" horiz-adv-x="580" 
d="M520 324l-24 -31.5t-27 -28t-33.5 -20.5t-41.5 -8q-29 0 -56 10.5t-54 23.5t-53.5 23.5t-53.5 10.5q-33 0 -52.5 -22t-31.5 -48l-33 48q11 16 23.5 31.5t27 28t33 20.5t41.5 8q29 0 56.5 -10.5t54 -23.5t53 -23.5t53.5 -10.5q33 0 52.5 22t32.5 48z" />
    <glyph glyph-name="exclamdown" unicode="&#xa1;" horiz-adv-x="282" 
d="M93 -183l19 501h60l19 -488zM202 461q0 -26 -17.5 -43.5t-43.5 -17.5t-43.5 17.5t-17.5 42.5q0 26 17.5 44.5t43.5 18.5t43.5 -18t17.5 -44z" />
    <glyph glyph-name="cent" unicode="&#xa2;" horiz-adv-x="459" 
d="M242 440q-21 -6 -39 -19.5t-29 -33.5q-28 -52 -28 -163q0 -151 96 -171v387zM419 55q-29 -29 -58 -44.5t-64 -19.5v-76h-55v75q-89 8 -134 74q-25 36 -36.5 78.5t-11.5 98.5q0 82 21.5 131t53.5 81q48 48 107 55v78h55v-78q35 -5 60.5 -18.5t48.5 -32.5l-43 -54
q-20 17 -35 25.5t-31 11.5v-386q46 10 79 51z" />
    <glyph glyph-name="sterling" unicode="&#xa3;" horiz-adv-x="553" 
d="M478 599q-23 23 -49 36t-59 13q-37 0 -61.5 -12.5t-39.5 -35.5t-21 -55t-6 -71v-78h162v-66h-162v-252h246v-78h-438v78h108v252h-96v66h96v80q0 65 16.5 111.5t45 76t68 43t84.5 13.5t87 -15t74 -47z" />
    <glyph glyph-name="fraction" unicode="&#x2044;" horiz-adv-x="293" 
d="M-84 -154h-66l527 917h66z" />
    <glyph glyph-name="yen" unicode="&#xa5;" horiz-adv-x="529" 
d="M363 374h149v-59h-180l-26 -48v-48h206v-59h-206v-160h-85v160h-194v59h194v53l-23 43h-171v59h139l-166 312h101l130 -262l15.5 -34l13.5 -30t6 -13q1 2 6 13l14 29.5l17 34.5l132 262h94z" />
    <glyph glyph-name="florin" unicode="&#x192;" horiz-adv-x="314" 
d="M331 640q-13 8 -31.5 15.5t-37.5 7.5q-32 0 -50.5 -22.5t-21.5 -65.5l-5 -77h134l-28 -59h-110l-26 -384q-3 -51 -7 -87.5t-16 -64.5t-36 -51.5t-69 -49.5l-37 56q33 21 50.5 40t25 40.5t9 48l3.5 61.5l25 391h-46v59h50l5 78q3 52 20 78t42 44q18 13 39 19.5t47 6.5
q15 0 31.5 -3.5t30.5 -8t25.5 -9.5t16.5 -8z" />
    <glyph glyph-name="section" unicode="&#xa7;" horiz-adv-x="538" 
d="M394 270q0 21 -9.5 37t-23.5 29t-31 22.5t-33 17.5l-58 29q-15 -6 -30 -13t-27 -17t-20 -23.5t-8 -32.5q0 -20 8 -34t20 -25t27.5 -19t30.5 -15l89 -43q25 11 45 34.5t20 52.5zM478 282q0 -46 -24 -79t-62 -54q32 -21 50.5 -51t18.5 -72q0 -43 -17.5 -75t-46 -53
t-65.5 -31.5t-75 -10.5q-65 0 -118.5 29.5t-78.5 93.5l77 36q14 -46 47.5 -66.5t78.5 -20.5q21 0 40.5 5t34.5 16.5t24 29t9 41.5q0 18 -6 31t-18.5 24t-31.5 21.5l-44 23.5l-122 64q-35 18 -54 50t-19 72q0 53 28.5 86t72.5 54q-35 20 -56 48.5t-21 69.5q0 40 16.5 70.5
t43.5 50.5t61.5 30.5t70.5 10.5q26 0 52 -5.5t49.5 -16.5t42.5 -29t31 -43l-75 -41q-12 33 -41.5 48t-61.5 15q-19 0 -38 -5t-34 -15.5t-24 -27t-9 -38.5q0 -49 44 -72l98 -49l52 -27.5t49.5 -34t36.5 -44.5t14 -59z" />
    <glyph glyph-name="Euro" unicode="&#x20ac;" horiz-adv-x="643" 
d="M593 27q-29 -16 -69.5 -27t-91.5 -11q-56 0 -108 23t-92 68q-28 32 -45.5 70.5t-26.5 83.5h-110v59h102q-1 12 -1.5 24t-0.5 24v16t1 16h-101v59h109q11 58 36.5 106.5t62 83.5t82 54t98.5 19q50 0 89 -12.5t54 -24.5l-14 -72q-31 23 -61.5 33t-68.5 10q-60 0 -102 -30
t-67 -88q-14 -33 -22 -79h269v-59h-275q-1 -11 -1 -22v-22q0 -10 0.5 -19t0.5 -17h275v-59h-269q4 -25 15 -50q26 -65 75.5 -96.5t108.5 -31.5q38 0 69.5 10.5t64.5 33.5z" />
    <glyph glyph-name="quotesingle" unicode="'" horiz-adv-x="252" 
d="M90 468v240h72v-240h-72z" />
    <glyph glyph-name="quotedblleft" unicode="&#x201c;" horiz-adv-x="457" 
d="M210 667q-59 -29 -67 -89q5 1 11 1q23 0 39 -19t16 -45q0 -30 -20.5 -51t-49.5 -21q-35 0 -57 27t-22 69q0 26 10 52.5t28 50.5q15 20 38 38t46 31zM407 667q-59 -29 -67 -89q5 1 11 1q23 0 39 -19t16 -45q0 -30 -20.5 -51t-49.5 -21q-35 0 -57 27t-22 69q0 26 10 52.5
t28 50.5q15 20 38 38t46 31z" />
    <glyph glyph-name="guillemotleft" unicode="&#xab;" horiz-adv-x="494" 
d="M203 26l-143 214l143 214l55 -36l-117 -178l117 -178zM389 26l-143 214l143 214l55 -36l-117 -178l117 -178z" />
    <glyph glyph-name="guilsinglleft" unicode="&#x2039;" horiz-adv-x="308" 
d="M203 26l-143 214l143 214l55 -36l-117 -178l117 -178z" />
    <glyph glyph-name="guilsinglright" unicode="&#x203a;" horiz-adv-x="308" 
d="M105 26l-55 36l117 178l-117 178l55 36l143 -214z" />
    <glyph glyph-name="fi" unicode="&#xfb01;" horiz-adv-x="554" 
d="M383 0v439h-211v-439h-82v439h-48v59h48v78q0 28 5.5 48t14 34.5t18 24t17.5 15.5q35 26 88 26q66 0 110 -29l-29 -55q-14 8 -34 15.5t-40 7.5q-68 0 -68 -88v-77h294v-498h-83zM486 651q0 -26 -17.5 -43.5t-43.5 -17.5t-43.5 17.5t-17.5 42.5q0 26 17.5 44t43.5 18
t43.5 -17.5t17.5 -43.5z" />
    <glyph glyph-name="fl" unicode="&#xfb02;" horiz-adv-x="546" 
d="M314 640q-14 8 -34 15.5t-40 7.5q-68 0 -68 -88v-77h138l-24 -59h-114v-439h-82v439h-48v59h48v78q0 28 5.5 48t14 34.5t18 24t17.5 15.5q35 26 88 26q66 0 110 -29zM510 1q-15 -7 -24.5 -9t-25.5 -2q-37 0 -59 21q-14 12 -19 28t-5 43v491q0 28 -0.5 48.5t-2 36.5
t-4.5 29.5t-7 28.5l81 16q3 -8 7.5 -48t4.5 -111v-473q0 -29 5.5 -39.5t22.5 -10.5q2 0 6 1l4 1z" />
    <glyph glyph-name="endash" unicode="&#x2013;" horiz-adv-x="585" 
d="M50 250v59h485v-59h-485z" />
    <glyph glyph-name="dagger" unicode="&#x2020;" horiz-adv-x="466" 
d="M426 455h-150v-455h-79v455h-157v69h157v162h79v-162h160z" />
    <glyph glyph-name="daggerdbl" unicode="&#x2021;" horiz-adv-x="479" 
d="M429 455h-150v-224h157v-69h-157v-162h-79v162h-160l10 69h150v224h-157v69h157v162h79v-162h160z" />
    <glyph glyph-name="periodcentered" unicode="&#xb7;" horiz-adv-x="291" 
d="M211 279q0 -27 -19 -46.5t-46 -19.5t-46.5 19.5t-19.5 46.5q0 28 19 47t46 19t46.5 -19t19.5 -47z" />
    <glyph glyph-name="paragraph" unicode="&#xb6;" horiz-adv-x="591" 
d="M429 -126v768h-118v-768h-72v442q-46 0 -84.5 14.5t-66 39.5t-43 59t-15.5 73q0 98 61 152t167 54h243v-834h-72z" />
    <glyph glyph-name="bullet" unicode="&#x2022;" horiz-adv-x="514" 
d="M434 354q0 -37 -14 -69t-38 -56t-56 -38t-69 -14t-69 14t-56 38t-38 56t-14 69t14 69t38 56t56 38t69 14t69 -14t56 -38t38 -56t14 -69z" />
    <glyph glyph-name="quotesinglbase" unicode="&#x201a;" 
d="M200 29q0 -26 -10 -52.5t-28 -50.5q-15 -20 -38 -38t-46 -31l-28 44q59 29 67 89q-5 -1 -11 -1q-23 0 -39 19t-16 45q0 30 20.5 51t49.5 21q35 0 57 -27t22 -69z" />
    <glyph glyph-name="quotedblbase" unicode="&#x201e;" horiz-adv-x="458" 
d="M200 29q0 -26 -10 -52.5t-28 -50.5q-15 -20 -38 -38t-46 -31l-28 44q59 29 67 89q-5 -1 -11 -1q-23 0 -39 19t-16 45q0 30 20.5 51t49.5 21q35 0 57 -27t22 -69zM398 29q0 -26 -10 -52.5t-28 -50.5q-15 -20 -38 -38t-46 -31l-28 44q59 29 67 89q-5 -1 -11 -1
q-23 0 -39 19t-16 45q0 30 20.5 51t49.5 21q35 0 57 -27t22 -69z" />
    <glyph glyph-name="quotedblright" unicode="&#x201d;" horiz-adv-x="457" 
d="M200 602q0 -26 -10 -52.5t-28 -50.5q-15 -20 -38 -38t-46 -31l-28 44q59 29 67 89q-5 -1 -11 -1q-23 0 -39 19t-16 45q0 30 20.5 51t49.5 21q35 0 57 -27t22 -69zM397 602q0 -26 -10 -52.5t-28 -50.5q-15 -20 -38 -38t-46 -31l-28 44q59 29 67 89q-5 -1 -11 -1
q-23 0 -39 19t-16 45q0 30 20.5 51t49.5 21q35 0 57 -27t22 -69z" />
    <glyph glyph-name="guillemotright" unicode="&#xbb;" horiz-adv-x="494" 
d="M105 26l-55 36l117 178l-117 178l55 36l143 -214zM291 26l-55 36l117 178l-117 178l55 36l143 -214z" />
    <glyph glyph-name="ellipsis" unicode="&#x2026;" horiz-adv-x="734" 
d="M204 56q0 -29 -19.5 -49t-46.5 -20q-29 0 -48.5 20t-19.5 49q0 28 19 47t47 19q29 0 48.5 -19t19.5 -47zM434 56q0 -29 -19.5 -49t-46.5 -20q-29 0 -48.5 20t-19.5 49q0 28 19 47t47 19q29 0 48.5 -19t19.5 -47zM664 56q0 -29 -19.5 -49t-46.5 -20q-29 0 -48.5 20
t-19.5 49q0 28 19 47t47 19q29 0 48.5 -19t19.5 -47z" />
    <glyph glyph-name="perthousand" unicode="&#x2030;" horiz-adv-x="1218" 
d="M295 511q0 22 -3 44.5t-13 40.5t-29 29t-51 11q-48 0 -69.5 -28t-21.5 -79q0 -62 21 -93.5t75 -31.5q43 0 67 27t24 80zM741 152q0 22 -3 44.5t-13 40.5t-29 29t-51 11q-48 0 -69.5 -28t-21.5 -79q0 -62 21 -93.5t75 -31.5q43 0 67 27t24 80zM1111 152q0 22 -3 44.5
t-13 40.5t-29 29t-51 11q-48 0 -69.5 -28t-21.5 -79q0 -62 21 -93.5t75 -31.5q43 0 67 27t24 80zM362 515q0 -77 -43 -121.5t-118 -44.5t-118 46t-43 126t42.5 125t117.5 45q83 0 122.5 -49t39.5 -127zM293 0h-66l335 686h66zM808 156q0 -77 -43 -121.5t-118 -44.5t-118 46
t-43 126t42.5 125t117.5 45q83 0 122.5 -49t39.5 -127zM1178 156q0 -77 -43 -121.5t-118 -44.5t-118 46t-43 126t42.5 125t117.5 45q83 0 122.5 -49t39.5 -127z" />
    <glyph glyph-name="questiondown" unicode="&#xbf;" horiz-adv-x="428" 
d="M388 -127q-35 -27 -85 -43t-99 -16q-69 0 -111.5 40t-42.5 107q0 37 14 65t32.5 48t35.5 32t23 17q69 55 44 164h67q14 -58 5 -109t-52 -92q-15 -14 -30.5 -25t-29 -23.5t-22 -29.5t-8.5 -43q0 -37 25.5 -60t64.5 -23q36 0 70 12.5t66 33.5zM293 454q0 -28 -19.5 -47.5
t-47.5 -19.5t-48 19.5t-20 47.5q0 29 19.5 49t47.5 20t48 -20t20 -49z" />
    <glyph glyph-name="grave" unicode="`" horiz-adv-x="350" 
d="M274 565l-224 100l43 77l207 -130z" />
    <glyph glyph-name="acute" unicode="&#xb4;" horiz-adv-x="350" 
d="M76 565l-26 47l207 130l43 -77z" />
    <glyph glyph-name="circumflex" unicode="&#x2c6;" horiz-adv-x="401" 
d="M335 561l-139 85l-135 -85l-31 44l170 135l171 -135z" />
    <glyph glyph-name="tilde" unicode="&#x2dc;" horiz-adv-x="385" 
d="M365 656q-25 -31 -51 -47t-70 -16q-23 0 -37.5 6t-27 12.5t-26.5 12.5t-36 6q-24 0 -38.5 -11t-30.5 -28l-28 45q25 31 50.5 47t69.5 16q23 0 37.5 -6t27 -12.5t26.5 -12.5t36 -6q24 0 39 11t31 28z" />
    <glyph glyph-name="macron" unicode="&#xaf;" horiz-adv-x="314" 
d="M20 683v54h274v-54h-274z" />
    <glyph glyph-name="breve" unicode="&#x2d8;" horiz-adv-x="401" 
d="M371 693q-5 -7 -21.5 -26t-39.5 -38.5t-51.5 -35t-57.5 -15.5t-57.5 15.5t-52 35t-40 38.5t-21.5 26l36 44l20.5 -17t32 -21.5t40.5 -18.5t46 -8q20 0 41.5 8.5t40 19.5t33 21.5t20.5 15.5z" />
    <glyph glyph-name="dotaccent" unicode="&#x2d9;" horiz-adv-x="242" 
d="M182 652q0 -26 -17.5 -43.5t-43.5 -17.5t-43.5 17.5t-17.5 42.5q0 26 17.5 44t43.5 18t43.5 -17.5t17.5 -43.5z" />
    <glyph glyph-name="dieresis" unicode="&#xa8;" horiz-adv-x="410" 
d="M153 621q0 -22 -14.5 -37.5t-36.5 -15.5t-37 15.5t-15 37.5q0 21 15 36t36 15q22 0 37 -15t15 -36zM360 621q0 -22 -15 -37.5t-36 -15.5q-22 0 -37.5 15.5t-15.5 37.5q0 21 15 36t37 15q21 0 36.5 -15t15.5 -36z" />
    <glyph glyph-name="ring" unicode="&#x2da;" horiz-adv-x="290" 
d="M205 659q0 24 -18 42t-44 18q-23 0 -40 -18t-17 -42t18 -42t42 -18q23 0 41 18t18 42zM250 659q0 -22 -8 -41t-22.5 -33.5t-33.5 -23t-40 -8.5q-22 0 -41 8.5t-33.5 23t-23 33.5t-8.5 41t8 41t22.5 33.5t33.5 23t40 8.5t40.5 -8.5t34 -23t23 -33.5t8.5 -41z" />
    <glyph glyph-name="cedilla" unicode="&#xb8;" horiz-adv-x="280" 
d="M230 -114q0 -14 -6.5 -29t-18.5 -27t-30.5 -19.5t-42.5 -7.5q-23 0 -45 8t-37 16l21 47q20 -9 32 -12.5t29 -3.5q14 0 25 8t11 22q0 15 -12.5 22t-25.5 7q-16 0 -26 -2l-9 10l20 75h61l-11 -42q38 -5 51.5 -25t13.5 -47z" />
    <glyph glyph-name="hungarumlaut" unicode="&#x2dd;" horiz-adv-x="418" 
d="M80 524l-50 21l86 210l81 -33zM234 530l-44 31l124 189l74 -47z" />
    <glyph glyph-name="ogonek" unicode="&#x2db;" horiz-adv-x="280" 
d="M230 -173q-15 -8 -37 -16t-45 -8q-48 0 -73 26t-25 61q0 23 7 43t17 36.5t21 28.5t20 19l51 -29l-8.5 -7.5t-18.5 -20t-18.5 -29t-8.5 -35.5q0 -14 9 -25t27 -11q17 0 29 2.5t32 11.5z" />
    <glyph glyph-name="caron" unicode="&#x2c7;" horiz-adv-x="401" 
d="M201 558l-171 135l36 44l139 -85l135 85l31 -44z" />
    <glyph glyph-name="emdash" unicode="&#x2014;" horiz-adv-x="812" 
d="M50 250v59h712v-59h-712z" />
    <glyph glyph-name="AE" unicode="&#xc6;" horiz-adv-x="875" 
d="M455 607l-195 -327h195v327zM455 0v213h-236l-130 -213h-89l424 686h406l-11 -69h-281v-224h235v-71h-235v-251h302v-71h-385z" />
    <glyph glyph-name="ordfeminine" unicode="&#xaa;" horiz-adv-x="419" 
d="M279 571q-10 2 -16 2h-13q-69 0 -99 -22t-30 -67q0 -69 65 -69q29 0 53 16.5t38 42.5zM50 240v54h313v-54h-313zM337 365q-41 13 -52 54q-27 -29 -53 -39t-55 -10q-35 0 -58.5 9.5t-37.5 25t-19.5 35t-5.5 38.5q0 65 51.5 100t145.5 35h12t14 -1v36q0 66 -60 66
q-30 0 -62 -12.5t-58 -32.5l-30 46q40 26 79 38.5t80 12.5q35 0 59.5 -11.5t36.5 -29.5q14 -21 16.5 -47.5t1.5 -54.5l-4 -134q-1 -32 5 -50.5t26 -29.5z" />
    <glyph glyph-name="Lslash" unicode="&#x141;" horiz-adv-x="453" 
d="M432 0h-342v308l-67 -22v72l67 22v306h82v-280l178 57v-72l-178 -57v-265h271z" />
    <glyph glyph-name="Oslash" unicode="&#xd8;" horiz-adv-x="671" 
d="M519 320q0 73 -7.5 124.5t-22.5 87.5l-265 -441q23 -19 54.5 -30t62.5 -11q42 0 73.5 15t54.5 44q13 16 22.5 35t15.5 44t9 57.5t3 74.5zM450 588q-21 20 -50 32t-67 12q-48 0 -87.5 -21.5t-59.5 -58.5q-18 -34 -26.5 -79.5t-8.5 -109.5q0 -67 9 -123.5t24 -94.5z
M611 332q0 -99 -24 -165t-76 -114q-38 -35 -79 -50.5t-95 -15.5q-45 0 -82 12t-67 33l-68 -113l-52 32l74 123q-82 94 -82 272q0 82 19 147t54 110.5t86 70t114 24.5q51 0 89 -13.5t66 -33.5l64 107l53 -32l-71 -119q40 -49 58.5 -116t18.5 -159z" />
    <glyph glyph-name="OE" unicode="&#x152;" horiz-adv-x="871" 
d="M451 608q-23 3 -45.5 5t-42.5 2q-60 0 -101 -14.5t-67 -56.5q-24 -39 -35 -88.5t-11 -103.5q0 -78 12 -130.5t47 -93.5q53 -62 129 -62h24q15 0 30.5 1l31.5 2t28 3v536zM396 0q-39 0 -69 1.5t-55 6.5t-48 15.5t-48 28.5q-59 42 -87.5 115.5t-28.5 174.5q0 91 21.5 154.5
t56.5 101.5q20 22 41.5 39t47 27.5t56.5 16t71 5.5h472l-11 -69h-281v-224h235v-71h-235v-251h302v-71h-440z" />
    <glyph glyph-name="ordmasculine" unicode="&#xba;" horiz-adv-x="422" 
d="M300 554q0 45 -7 74.5t-19 47t-29 24t-37 6.5q-47 0 -68 -33t-21 -99q0 -80 23 -115.5t71 -35.5q43 0 65 31t22 100zM55 240v54h313v-54h-313zM372 557q0 -92 -43 -141t-118 -49t-118 53t-43 146q0 92 42.5 143.5t116.5 51.5q82 0 122.5 -54.5t40.5 -149.5z" />
    <glyph glyph-name="ae" unicode="&#xe6;" horiz-adv-x="785" 
d="M352 253l-14 1t-25 1q-92 0 -131.5 -30.5t-39.5 -88.5q0 -91 86 -91q38 0 71 21.5t50 56.5zM652 295q0 78 -26.5 116.5t-86.5 38.5q-109 0 -115 -155h228zM424 219q0 -34 8 -64t25 -52.5t45 -35.5t69 -13q71 0 122 47l30 -50q-33 -30 -76.5 -46t-91.5 -16
q-60 0 -104.5 25.5t-66.5 59.5q-16 -20 -36.5 -36t-43 -27.5t-45.5 -17.5t-44 -6q-47 0 -78 13.5t-49 34.5t-25.5 46t-7.5 48q0 85 69 132t195 47q11 0 23 -0.5l12 -0.5v35q0 33 -2.5 49.5t-13.5 28.5q-12 14 -28 20.5t-39 6.5q-39 0 -81.5 -16t-77.5 -43l-39 56
q100 67 209 67q45 0 74 -17.5t47 -47.5q29 30 63.5 48t76.5 18q83 0 135 -54q16 -17 27 -35t17.5 -42.5t9.5 -56.5t3 -77v-11z" />
    <glyph glyph-name="dotlessi" unicode="&#x131;" horiz-adv-x="261" 
d="M90 0v496l81 13v-509h-81z" />
    <glyph glyph-name="lslash" unicode="&#x142;" horiz-adv-x="259" 
d="M162 332v-232q0 -29 5.5 -39.5t22.5 -10.5q2 0 6 1l4 1l16 -51q-15 -7 -24.5 -9t-25.5 -2q-37 0 -59 21q-12 11 -18 27.5t-6 43.5v224l-59 -20v72l59 20v232q0 49 -6 75.5l-6 26.5l78 15l6.5 -30.5t6.5 -87.5v-205l73 26v-72z" />
    <glyph glyph-name="oslash" unicode="&#xf8;" horiz-adv-x="539" 
d="M395 231q0 95 -20 141l-180 -299q15 -11 35 -18t42 -7q39 0 67 19.5t41 55.5q8 23 11.5 47t3.5 61zM338 422q-16 12 -34.5 17.5t-37.5 5.5q-33 0 -61 -14.5t-41 -39.5q-12 -23 -18 -54t-6 -76q0 -41 5 -76t14 -61zM484 237q0 -73 -18 -121.5t-60 -84.5q-29 -26 -61.5 -37
t-74.5 -11q-65 0 -111 30l-48 -79l-48 30l52 87q-29 34 -44.5 84t-15.5 113q0 122 56.5 191.5t155.5 69.5q32 0 58.5 -7t48.5 -20l50 83l49 -30l-54 -89q34 -39 49.5 -88t15.5 -121z" />
    <glyph glyph-name="oe" unicode="&#x153;" horiz-adv-x="839" 
d="M395 231q0 103 -23 150q-16 33 -45.5 48.5t-60.5 15.5q-33 0 -61 -14.5t-41 -39.5q-12 -23 -18 -54t-6 -76q0 -53 8.5 -96.5t22.5 -66.5t41.5 -36.5t59.5 -13.5q39 0 67 19.5t41 55.5q8 23 11.5 47t3.5 61zM706 295q-1 41 -6.5 67t-16.5 44q-13 20 -37 32t-53 12
q-109 0 -115 -155h228zM478 236v-12q0 -35 5 -62t18 -47q21 -32 53.5 -46.5t70.5 -14.5q71 0 122 47l30 -50q-33 -30 -76.5 -46t-91.5 -16q-56 0 -101.5 22.5t-65.5 58.5q-35 -45 -75 -66t-97 -21q-50 0 -90 18.5t-67.5 52.5t-42.5 83t-15 111q0 122 56.5 191.5t155.5 69.5
q61 0 102 -24t66 -61q60 88 162 88q41 0 75 -14.5t60 -40.5q16 -17 27 -35t17.5 -42t9.5 -56t3 -77v-11h-311z" />
    <glyph glyph-name="germandbls" unicode="&#xdf;" horiz-adv-x="567" 
d="M517 174q0 -38 -14 -72t-38.5 -59.5t-59 -40t-76.5 -14.5q-29 0 -55.5 5t-43.5 13l23 52q14 -6 29.5 -9.5t35.5 -3.5q25 0 46 10t36.5 27t24.5 40t9 49q0 28 -6.5 47.5t-19 33t-31 24t-41.5 21.5q-27 12 -46.5 22t-32.5 20.5t-19.5 22.5t-6.5 29q0 19 8 32.5t20.5 23.5
t27.5 17.5l30 14.5q22 11 39 28t17 54q0 40 -28 65t-74 25q-48 0 -76 -33.5t-28 -108.5v-408q0 -64 -12 -101h-75q5 21 7.5 51.5t2.5 65.5v322h-74v59h74q0 52 7 85.5t33 63.5t62.5 46t84.5 16q39 0 71.5 -11.5t56.5 -32.5t37.5 -49t13.5 -61q0 -24 -7.5 -43t-19.5 -33.5
t-27 -24.5t-30 -17q-14 -7 -26.5 -11t-22 -8t-15 -9t-5.5 -13q0 -7 11.5 -14t31.5 -15.5l45.5 -20t54.5 -28.5q33 -20 52 -58t19 -86z" />
    <glyph glyph-name="Ydieresis" unicode="&#x178;" horiz-adv-x="509" 
d="M296 267v-267h-85v272l-221 414h101l130 -262l17.5 -37.5t12.5 -28.5t5 -11l11 23.5l26 53.5l132 262h94zM202 781q0 -22 -14.5 -37.5t-36.5 -15.5t-37 15.5t-15 37.5q0 21 15 36t36 15q22 0 37 -15t15 -36zM409 781q0 -22 -15 -37.5t-36 -15.5q-22 0 -37.5 15.5
t-15.5 37.5q0 21 15 36t37 15q21 0 36.5 -15t15.5 -36z" />
    <glyph glyph-name="trademark" unicode="&#x2122;" horiz-adv-x="982" 
d="M226 620v-346h-66v346h-130v66h326v-66h-130zM826 274v346h-2l-136 -346h-45l-136 346h-2v-346h-66v412h105l123 -313l123 313h102v-412h-66z" />
    <glyph glyph-name="zcaron" horiz-adv-x="449" 
d="M372 0h-332v60l271 376h-250v62h332v-64l-259 -374h275zM231 558l-171 135l36 44l139 -85l135 85l31 -44z" />
    <glyph glyph-name="zcaron" unicode="&#x17e;" horiz-adv-x="449" 
d="M372 0h-332v60l271 376h-250v62h332v-64l-259 -374h275zM231 558l-171 135l36 44l139 -85l135 85l31 -44z" />
    <glyph glyph-name="Zcaron" horiz-adv-x="508" 
d="M447 0h-407v63l293 489q20 32 32 49l12 17l-19.5 -0.5t-51.5 -0.5h-256l23 69h391v-70l-285 -481q-17 -29 -29.5 -47.5l-12.5 -18.5l18 0.5t41 0.5h272zM259 723l-171 135l36 44l139 -85l135 85l31 -44z" />
    <glyph glyph-name="Zcaron" unicode="&#x17d;" horiz-adv-x="508" 
d="M447 0h-407v63l293 489q20 32 32 49l12 17l-19.5 -0.5t-51.5 -0.5h-256l23 69h391v-70l-285 -481q-17 -29 -29.5 -47.5l-12.5 -18.5l18 0.5t41 0.5h272zM259 723l-171 135l36 44l139 -85l135 85l31 -44z" />
    <glyph glyph-name="scaron" unicode="&#x161;" horiz-adv-x="471" 
d="M421 148q0 -36 -13.5 -66t-38.5 -51.5t-59.5 -33.5t-76.5 -12q-48 0 -96.5 13.5t-86.5 36.5l30 58q77 -47 158 -47q46 0 73.5 23t27.5 63q0 34 -19.5 53.5t-62.5 28.5l-62 13q-62 13 -94 49t-32 88q0 34 13 62t36.5 48t56 31.5t71.5 11.5t79.5 -11t72.5 -29l-29 -58
q-33 16 -62.5 26t-62.5 10q-43 0 -68.5 -22.5t-25.5 -59.5q0 -29 16 -46.5t56 -25.5l66 -14q133 -28 133 -139zM243 558l-171 135l36 44l139 -85l135 85l31 -44z" />
    <glyph glyph-name="Scaron" unicode="&#x160;" horiz-adv-x="569" 
d="M519 194q0 -48 -24.5 -92t-70.5 -73q-34 -22 -70 -32t-84 -10q-62 0 -115.5 15t-104.5 47l36 64q43 -31 87.5 -45t96.5 -14q39 0 63 6.5t46 23.5q49 37 49 98q0 91 -123 128l-69 21q-47 14 -74.5 27t-47.5 34q-43 46 -43 112q0 44 16 80t45 62t70 40.5t91 14.5
q109 0 207 -66l-36 -59q-25 16 -46 27t-40.5 18t-39 10t-41.5 3q-65 0 -101 -30t-36 -83q0 -42 26.5 -67t87.5 -45l79 -25q46 -14 73 -29.5t48 -39.5t33 -56.5t12 -64.5zM292 723l-171 135l36 44l139 -85l135 85l31 -44z" />
    <glyph glyph-name="ydieresis" unicode="&#xff;" horiz-adv-x="449" 
d="M268 -18q-12 -38 -26.5 -68.5t-33.5 -54.5t-43.5 -40t-57.5 -24l-23 53q24 7 41 18t30 28t23.5 43t20.5 64l-32 -5q-2 12 -8 34.5l-13 48.5t-15 51.5l-14 44.5l-107 312l77 26l102 -323q6 -18 11 -39.5l9.5 -40t7 -31.5l2.5 -13h2q1 2 5.5 18l12 41.5l13.5 45.5l98 327
h89zM174 621q0 -22 -14.5 -37.5t-36.5 -15.5t-37 15.5t-15 37.5q0 21 15 36t36 15q22 0 37 -15t15 -36zM381 621q0 -22 -15 -37.5t-36 -15.5q-22 0 -37.5 15.5t-15.5 37.5q0 21 15 36t37 15q21 0 36.5 -15t15.5 -36z" />
    <glyph glyph-name="thorn" unicode="&#xfe;" horiz-adv-x="557" 
d="M414 240q0 45 -6 82.5t-17 60.5q-12 26 -37 40.5t-55 14.5q-38 0 -71 -15.5t-62 -50.5v-255q55 -63 118 -63q35 0 63.5 17t41.5 45q11 24 18 53t7 71zM497 250q0 -60 -11.5 -98t-32.5 -72q-27 -44 -66 -67.5t-88 -23.5q-79 0 -133 56v-238l-78 -15v818q0 61 -13 106
l78 15q6 -26 9.5 -55.5t3.5 -58.5v-100q0 -30 -2 -47.5t-2 -30.5q31 36 68 52.5t79 16.5q38 0 73.5 -16t59.5 -46q28 -35 41.5 -82t13.5 -114z" />
    <glyph glyph-name="yacute" unicode="&#xfd;" horiz-adv-x="449" 
d="M268 -18q-12 -38 -26.5 -68.5t-33.5 -54.5t-43.5 -40t-57.5 -24l-23 53q24 7 41 18t30 28t23.5 43t20.5 64l-32 -5q-2 12 -8 34.5l-13 48.5t-15 51.5l-14 44.5l-107 312l77 26l102 -323q6 -18 11 -39.5l9.5 -40t7 -31.5l2.5 -13h2q1 2 5.5 18l12 41.5l13.5 45.5l98 327
h89zM185 562l-26 47l207 130l43 -77z" />
    <glyph glyph-name="udieresis" unicode="&#xfc;" horiz-adv-x="547" 
d="M441 -21q-25 20 -37 37.5t-17 42.5q-57 -76 -158 -76q-48 0 -81.5 19t-49.5 52q-7 14 -10 33t-3 41v366l77 15v-358q0 -35 6.5 -53.5t23.5 -30.5q12 -8 28 -12.5t33 -4.5q37 0 72 24.5t55 65.5v353l77 13v-363q0 -47 7.5 -70.5t26.5 -40.5zM219 621q0 -22 -14.5 -37.5
t-36.5 -15.5t-37 15.5t-15 37.5q0 21 15 36t36 15q22 0 37 -15t15 -36zM426 621q0 -22 -15 -37.5t-36 -15.5q-22 0 -37.5 15.5t-15.5 37.5q0 21 15 36t37 15q21 0 36.5 -15t15.5 -36z" />
    <glyph glyph-name="ucircumflex" unicode="&#xfb;" horiz-adv-x="547" 
d="M441 -21q-25 20 -37 37.5t-17 42.5q-57 -76 -158 -76q-48 0 -81.5 19t-49.5 52q-7 14 -10 33t-3 41v366l77 15v-358q0 -35 6.5 -53.5t23.5 -30.5q12 -8 28 -12.5t33 -4.5q37 0 72 24.5t55 65.5v353l77 13v-363q0 -47 7.5 -70.5t26.5 -40.5zM407 561l-139 85l-135 -85
l-31 44l170 135l171 -135z" />
    <glyph glyph-name="uacute" unicode="&#xfa;" horiz-adv-x="547" 
d="M441 -21q-25 20 -37 37.5t-17 42.5q-57 -76 -158 -76q-48 0 -81.5 19t-49.5 52q-7 14 -10 33t-3 41v366l77 15v-358q0 -35 6.5 -53.5t23.5 -30.5q12 -8 28 -12.5t33 -4.5q37 0 72 24.5t55 65.5v353l77 13v-363q0 -47 7.5 -70.5t26.5 -40.5zM218 565l-26 47l207 130
l43 -77z" />
    <glyph glyph-name="ugrave" unicode="&#xf9;" horiz-adv-x="547" 
d="M441 -21q-25 20 -37 37.5t-17 42.5q-57 -76 -158 -76q-48 0 -81.5 19t-49.5 52q-7 14 -10 33t-3 41v366l77 15v-358q0 -35 6.5 -53.5t23.5 -30.5q12 -8 28 -12.5t33 -4.5q37 0 72 24.5t55 65.5v353l77 13v-363q0 -47 7.5 -70.5t26.5 -40.5zM366 565l-224 100l43 77
l207 -130z" />
    <glyph glyph-name="divide" unicode="&#xf7;" horiz-adv-x="600" 
d="M369 56q0 -29 -19.5 -48.5t-48.5 -19.5q-28 0 -47 19.5t-19 47.5q0 29 19.5 48.5t48.5 19.5q27 0 46.5 -19.5t19.5 -47.5zM50 235v65h500v-65h-500zM369 472q0 -29 -19.5 -48.5t-47.5 -19.5t-47.5 19t-19.5 47q0 29 19.5 49t48.5 20q27 0 46.5 -19.5t19.5 -47.5z" />
    <glyph glyph-name="odieresis" unicode="&#xf6;" horiz-adv-x="539" 
d="M395 235q0 103 -23 150q-16 33 -45.5 48.5t-60.5 15.5q-33 0 -61 -14.5t-41 -39.5q-12 -23 -18 -54t-6 -76q0 -53 8.5 -96.5t22.5 -66.5t41.5 -36.5t59.5 -13.5q39 0 67 19.5t41 55.5q8 23 11.5 47t3.5 61zM484 241q0 -62 -16 -109.5t-44.5 -79.5t-67.5 -48.5t-86 -16.5
q-103 0 -159 71t-56 194q0 122 56.5 191.5t155.5 69.5q63 0 104 -25t67 -62q23 -34 34.5 -79t11.5 -106zM215 621q0 -22 -14.5 -37.5t-36.5 -15.5t-37 15.5t-15 37.5q0 21 15 36t36 15q22 0 37 -15t15 -36zM423 621q0 -22 -15 -37.5t-36 -15.5q-22 0 -37.5 15.5t-15.5 37.5
q0 21 15 36t37 15q21 0 36.5 -15t15.5 -36z" />
    <glyph glyph-name="otilde" unicode="&#xf5;" horiz-adv-x="539" 
d="M395 235q0 103 -23 150q-16 33 -45.5 48.5t-60.5 15.5q-33 0 -61 -14.5t-41 -39.5q-12 -23 -18 -54t-6 -76q0 -53 8.5 -96.5t22.5 -66.5t41.5 -36.5t59.5 -13.5q39 0 67 19.5t41 55.5q8 23 11.5 47t3.5 61zM484 241q0 -62 -16 -109.5t-44.5 -79.5t-67.5 -48.5t-86 -16.5
q-103 0 -159 71t-56 194q0 122 56.5 191.5t155.5 69.5q63 0 104 -25t67 -62q23 -34 34.5 -79t11.5 -106zM445 656q-25 -31 -51 -47t-70 -16q-23 0 -37.5 6t-27 12.5t-26.5 12.5t-36 6q-24 0 -38.5 -11t-30.5 -28l-28 45q25 31 50.5 47t69.5 16q23 0 37.5 -6t27 -12.5
t26.5 -12.5t36 -6q24 0 39 11t31 28z" />
    <glyph glyph-name="ocircumflex" unicode="&#xf4;" horiz-adv-x="539" 
d="M395 235q0 103 -23 150q-16 33 -45.5 48.5t-60.5 15.5q-33 0 -61 -14.5t-41 -39.5q-12 -23 -18 -54t-6 -76q0 -53 8.5 -96.5t22.5 -66.5t41.5 -36.5t59.5 -13.5q39 0 67 19.5t41 55.5q8 23 11.5 47t3.5 61zM484 241q0 -62 -16 -109.5t-44.5 -79.5t-67.5 -48.5t-86 -16.5
q-103 0 -159 71t-56 194q0 122 56.5 191.5t155.5 69.5q63 0 104 -25t67 -62q23 -34 34.5 -79t11.5 -106zM405 561l-139 85l-135 -85l-31 44l170 135l171 -135z" />
    <glyph glyph-name="oacute" unicode="&#xf3;" horiz-adv-x="539" 
d="M395 235q0 103 -23 150q-16 33 -45.5 48.5t-60.5 15.5q-33 0 -61 -14.5t-41 -39.5q-12 -23 -18 -54t-6 -76q0 -53 8.5 -96.5t22.5 -66.5t41.5 -36.5t59.5 -13.5q39 0 67 19.5t41 55.5q8 23 11.5 47t3.5 61zM484 241q0 -62 -16 -109.5t-44.5 -79.5t-67.5 -48.5t-86 -16.5
q-103 0 -159 71t-56 194q0 122 56.5 191.5t155.5 69.5q63 0 104 -25t67 -62q23 -34 34.5 -79t11.5 -106zM195 565l-26 47l207 130l43 -77z" />
    <glyph glyph-name="ograve" unicode="&#xf2;" horiz-adv-x="539" 
d="M395 235q0 103 -23 150q-16 33 -45.5 48.5t-60.5 15.5q-33 0 -61 -14.5t-41 -39.5q-12 -23 -18 -54t-6 -76q0 -53 8.5 -96.5t22.5 -66.5t41.5 -36.5t59.5 -13.5q39 0 67 19.5t41 55.5q8 23 11.5 47t3.5 61zM484 241q0 -62 -16 -109.5t-44.5 -79.5t-67.5 -48.5t-86 -16.5
q-103 0 -159 71t-56 194q0 122 56.5 191.5t155.5 69.5q63 0 104 -25t67 -62q23 -34 34.5 -79t11.5 -106zM349 565l-224 100l43 77l207 -130z" />
    <glyph glyph-name="ntilde" unicode="&#xf1;" horiz-adv-x="546" 
d="M377 0v337q0 20 -1 33t-3 22t-5.5 15.5t-8.5 12.5q-18 21 -55 21q-15 0 -33.5 -5.5t-37 -15t-36.5 -22.5t-31 -27v-371h-76v384q0 54 -9.5 79.5l-9.5 25.5l76 21q1 -1 5 -11t8.5 -28.5t4.5 -38.5q77 77 157 77q41 0 74 -20t48 -53q12 -27 12 -58v-378h-79zM440 656
q-25 -31 -51 -47t-70 -16q-23 0 -37.5 6t-27 12.5t-26.5 12.5t-36 6q-24 0 -38.5 -11t-30.5 -28l-28 45q25 31 50.5 47t69.5 16q23 0 37.5 -6t27 -12.5t26.5 -12.5t36 -6q24 0 39 11t31 28z" />
    <glyph glyph-name="eth" unicode="&#xf0;" horiz-adv-x="552" 
d="M407 251q0 12 -2 31l-4 37.5t-4 33.5t-3 18q-22 14 -55.5 23.5t-68.5 9.5q-29 0 -51.5 -14t-38.5 -38t-24.5 -56t-8.5 -68t9.5 -68t27 -56t41.5 -38.5t54 -14.5q65 0 96.5 53t31.5 147zM492 260q0 -65 -17.5 -116t-47 -86t-69.5 -53.5t-85 -18.5t-84 20.5t-67.5 54
t-45 77.5t-16.5 92q0 46 15 89t42 75t65 51.5t84 19.5q37 0 64.5 -6.5t47.5 -15.5q-17 48 -48 88t-79 72l-52 -59l-51 36l49 55q-53 28 -125 48l40 48q72 -18 129 -45l43 50l51 -36l-39 -44q103 -65 149.5 -164t46.5 -232z" />
    <glyph glyph-name="idieresis" unicode="&#xef;" horiz-adv-x="261" 
d="M90 0v496l81 13v-509h-81zM90 621q0 -22 -14.5 -37.5t-36.5 -15.5t-37 15.5t-15 37.5q0 21 15 36t36 15q22 0 37 -15t15 -36zM276 621q0 -22 -15 -37.5t-36 -15.5q-22 0 -37.5 15.5t-15.5 37.5q0 21 15 36t37 15q21 0 36.5 -15t15.5 -36z" />
    <glyph glyph-name="icircumflex" unicode="&#xee;" horiz-adv-x="261" 
d="M90 0v496l81 13v-509h-81zM266 561l-139 85l-135 -85l-31 44l170 135l171 -135z" />
    <glyph glyph-name="iacute" unicode="&#xed;" horiz-adv-x="261" 
d="M90 0v496l81 13v-509h-81zM57 565l-26 47l207 130l43 -77z" />
    <glyph glyph-name="igrave" unicode="&#xec;" horiz-adv-x="261" 
d="M90 0v496l81 13v-509h-81zM205 565l-224 100l43 77l207 -130z" />
    <glyph glyph-name="edieresis" unicode="&#xeb;" horiz-adv-x="511" 
d="M378 295q-1 41 -6.5 67t-16.5 44q-13 20 -37 32t-53 12q-109 0 -115 -155h228zM150 236v-12q0 -35 5 -62t18 -47q21 -32 53.5 -46.5t70.5 -14.5q71 0 122 47l30 -50q-33 -30 -76.5 -46t-91.5 -16q-104 0 -162.5 70.5t-58.5 194.5q0 63 14 106.5t46 81.5q59 69 149 69
q83 0 135 -54q16 -17 27 -35t17.5 -42t9.5 -56t3 -77v-11h-311zM214 621q0 -22 -14.5 -37.5t-36.5 -15.5t-37 15.5t-15 37.5q0 21 15 36t36 15q22 0 37 -15t15 -36zM421 621q0 -22 -15 -37.5t-36 -15.5q-22 0 -37.5 15.5t-15.5 37.5q0 21 15 36t37 15q21 0 36.5 -15
t15.5 -36z" />
    <glyph glyph-name="ecircumflex" unicode="&#xea;" horiz-adv-x="511" 
d="M378 295q-1 41 -6.5 67t-16.5 44q-13 20 -37 32t-53 12q-109 0 -115 -155h228zM150 236v-12q0 -35 5 -62t18 -47q21 -32 53.5 -46.5t70.5 -14.5q71 0 122 47l30 -50q-33 -30 -76.5 -46t-91.5 -16q-104 0 -162.5 70.5t-58.5 194.5q0 63 14 106.5t46 81.5q59 69 149 69
q83 0 135 -54q16 -17 27 -35t17.5 -42t9.5 -56t3 -77v-11h-311zM403 561l-139 85l-135 -85l-31 44l170 135l171 -135z" />
    <glyph glyph-name="eacute" unicode="&#xe9;" horiz-adv-x="511" 
d="M378 295q-1 41 -6.5 67t-16.5 44q-13 20 -37 32t-53 12q-109 0 -115 -155h228zM150 236v-12q0 -35 5 -62t18 -47q21 -32 53.5 -46.5t70.5 -14.5q71 0 122 47l30 -50q-33 -30 -76.5 -46t-91.5 -16q-104 0 -162.5 70.5t-58.5 194.5q0 63 14 106.5t46 81.5q59 69 149 69
q83 0 135 -54q16 -17 27 -35t17.5 -42t9.5 -56t3 -77v-11h-311zM181 565l-26 47l207 130l43 -77z" />
    <glyph glyph-name="egrave" unicode="&#xe8;" horiz-adv-x="511" 
d="M378 295q-1 41 -6.5 67t-16.5 44q-13 20 -37 32t-53 12q-109 0 -115 -155h228zM150 236v-12q0 -35 5 -62t18 -47q21 -32 53.5 -46.5t70.5 -14.5q71 0 122 47l30 -50q-33 -30 -76.5 -46t-91.5 -16q-104 0 -162.5 70.5t-58.5 194.5q0 63 14 106.5t46 81.5q59 69 149 69
q83 0 135 -54q16 -17 27 -35t17.5 -42t9.5 -56t3 -77v-11h-311zM352 565l-224 100l43 77l207 -130z" />
    <glyph glyph-name="ccedilla" unicode="&#xe7;" horiz-adv-x="459" 
d="M419 55q-34 -35 -68 -50t-79 -16l-8 -31q38 -5 51.5 -25t13.5 -47q0 -14 -6.5 -29t-18.5 -27t-30.5 -19.5t-42.5 -7.5q-23 0 -45 8t-37 16l21 47q20 -9 32 -12.5t29 -3.5q14 0 25 8t11 22q0 15 -12.5 22t-25.5 7q-16 0 -26 -2l-9 10l19 70q-68 15 -105 69
q-25 36 -36.5 78.5t-11.5 98.5q0 82 21.5 131t53.5 81q58 58 135 58q47 0 78 -16t58 -38l-43 -54q-26 22 -46 31t-49 9t-54.5 -15t-39.5 -41q-28 -52 -28 -163q0 -85 31.5 -129t91.5 -44q62 0 107 54z" />
    <glyph glyph-name="aring" unicode="&#xe5;" horiz-adv-x="519" 
d="M352 253q-10 1 -19 1.5t-20 0.5q-47 0 -80 -8t-53 -23t-29 -37.5t-9 -50.5q0 -91 86 -91q38 0 71 21.5t50 56.5zM333 659q0 24 -18 42t-44 18q-23 0 -40 -18t-17 -42t18 -42t42 -18q23 0 41 18t18 42zM427 -19q-26 8 -43.5 27.5t-24.5 45.5q-36 -36 -68.5 -51.5
t-75.5 -15.5q-46 0 -77 13t-49.5 33t-26 45.5t-7.5 50.5q0 85 69 132t195 47q16 0 25.5 -0.5l9.5 -0.5v35q0 33 -2.5 49.5t-13.5 28.5q-12 14 -28 20.5t-39 6.5q-21 0 -44 -5t-44.5 -13.5t-40 -19t-30.5 -21.5l-39 56q100 67 209 67q106 0 138 -78q8 -20 10 -48t1 -62
l-4 -164q-1 -30 0 -50t5.5 -33.5t12.5 -22.5t22 -16zM378 659q0 -22 -8 -41t-22.5 -33.5t-33.5 -23t-40 -8.5q-22 0 -41 8.5t-33.5 23t-23 33.5t-8.5 41t8 41t22.5 33.5t33.5 23t40 8.5t40.5 -8.5t34 -23t23 -33.5t8.5 -41z" />
    <glyph glyph-name="adieresis" unicode="&#xe4;" horiz-adv-x="519" 
d="M352 253q-10 1 -19 1.5t-20 0.5q-47 0 -80 -8t-53 -23t-29 -37.5t-9 -50.5q0 -91 86 -91q38 0 71 21.5t50 56.5zM427 -19q-26 8 -43.5 27.5t-24.5 45.5q-36 -36 -68.5 -51.5t-75.5 -15.5q-46 0 -77 13t-49.5 33t-26 45.5t-7.5 50.5q0 85 69 132t195 47q16 0 25.5 -0.5
l9.5 -0.5v35q0 33 -2.5 49.5t-13.5 28.5q-12 14 -28 20.5t-39 6.5q-21 0 -44 -5t-44.5 -13.5t-40 -19t-30.5 -21.5l-39 56q100 67 209 67q106 0 138 -78q8 -20 10 -48t1 -62l-4 -164q-1 -30 0 -50t5.5 -33.5t12.5 -22.5t22 -16zM217 621q0 -22 -14.5 -37.5t-36.5 -15.5
t-37 15.5t-15 37.5q0 21 15 36t36 15q22 0 37 -15t15 -36zM424 621q0 -22 -15 -37.5t-36 -15.5q-22 0 -37.5 15.5t-15.5 37.5q0 21 15 36t37 15q21 0 36.5 -15t15.5 -36z" />
    <glyph glyph-name="atilde" unicode="&#xe3;" horiz-adv-x="519" 
d="M352 253q-10 1 -19 1.5t-20 0.5q-47 0 -80 -8t-53 -23t-29 -37.5t-9 -50.5q0 -91 86 -91q38 0 71 21.5t50 56.5zM427 -19q-26 8 -43.5 27.5t-24.5 45.5q-36 -36 -68.5 -51.5t-75.5 -15.5q-46 0 -77 13t-49.5 33t-26 45.5t-7.5 50.5q0 85 69 132t195 47q16 0 25.5 -0.5
l9.5 -0.5v35q0 33 -2.5 49.5t-13.5 28.5q-12 14 -28 20.5t-39 6.5q-21 0 -44 -5t-44.5 -13.5t-40 -19t-30.5 -21.5l-39 56q100 67 209 67q106 0 138 -78q8 -20 10 -48t1 -62l-4 -164q-1 -30 0 -50t5.5 -33.5t12.5 -22.5t22 -16zM435 656q-25 -31 -51 -47t-70 -16
q-23 0 -37.5 6t-27 12.5t-26.5 12.5t-36 6q-24 0 -38.5 -11t-30.5 -28l-28 45q25 31 50.5 47t69.5 16q23 0 37.5 -6t27 -12.5t26.5 -12.5t36 -6q24 0 39 11t31 28z" />
    <glyph glyph-name="acircumflex" unicode="&#xe2;" horiz-adv-x="519" 
d="M352 253q-10 1 -19 1.5t-20 0.5q-47 0 -80 -8t-53 -23t-29 -37.5t-9 -50.5q0 -91 86 -91q38 0 71 21.5t50 56.5zM427 -19q-26 8 -43.5 27.5t-24.5 45.5q-36 -36 -68.5 -51.5t-75.5 -15.5q-46 0 -77 13t-49.5 33t-26 45.5t-7.5 50.5q0 85 69 132t195 47q16 0 25.5 -0.5
l9.5 -0.5v35q0 33 -2.5 49.5t-13.5 28.5q-12 14 -28 20.5t-39 6.5q-21 0 -44 -5t-44.5 -13.5t-40 -19t-30.5 -21.5l-39 56q100 67 209 67q106 0 138 -78q8 -20 10 -48t1 -62l-4 -164q-1 -30 0 -50t5.5 -33.5t12.5 -22.5t22 -16zM396 561l-139 85l-135 -85l-31 44l170 135
l171 -135z" />
    <glyph glyph-name="aacute" unicode="&#xe1;" horiz-adv-x="519" 
d="M352 253q-10 1 -19 1.5t-20 0.5q-47 0 -80 -8t-53 -23t-29 -37.5t-9 -50.5q0 -91 86 -91q38 0 71 21.5t50 56.5zM427 -19q-26 8 -43.5 27.5t-24.5 45.5q-36 -36 -68.5 -51.5t-75.5 -15.5q-46 0 -77 13t-49.5 33t-26 45.5t-7.5 50.5q0 85 69 132t195 47q16 0 25.5 -0.5
l9.5 -0.5v35q0 33 -2.5 49.5t-13.5 28.5q-12 14 -28 20.5t-39 6.5q-21 0 -44 -5t-44.5 -13.5t-40 -19t-30.5 -21.5l-39 56q100 67 209 67q106 0 138 -78q8 -20 10 -48t1 -62l-4 -164q-1 -30 0 -50t5.5 -33.5t12.5 -22.5t22 -16zM182 565l-26 47l207 130l43 -77z" />
    <glyph glyph-name="agrave" unicode="&#xe0;" horiz-adv-x="519" 
d="M352 253q-10 1 -19 1.5t-20 0.5q-47 0 -80 -8t-53 -23t-29 -37.5t-9 -50.5q0 -91 86 -91q38 0 71 21.5t50 56.5zM427 -19q-26 8 -43.5 27.5t-24.5 45.5q-36 -36 -68.5 -51.5t-75.5 -15.5q-46 0 -77 13t-49.5 33t-26 45.5t-7.5 50.5q0 85 69 132t195 47q16 0 25.5 -0.5
l9.5 -0.5v35q0 33 -2.5 49.5t-13.5 28.5q-12 14 -28 20.5t-39 6.5q-21 0 -44 -5t-44.5 -13.5t-40 -19t-30.5 -21.5l-39 56q100 67 209 67q106 0 138 -78q8 -20 10 -48t1 -62l-4 -164q-1 -30 0 -50t5.5 -33.5t12.5 -22.5t22 -16zM346 565l-224 100l43 77l207 -130z" />
    <glyph glyph-name="Thorn" unicode="&#xde;" horiz-adv-x="538" 
d="M427 344q0 38 -9.5 64.5t-30.5 44.5t-51 26t-79 8h-87v-277h115q44 0 67 8.5t40 28.5q35 39 35 97zM518 360q0 -53 -14 -92.5t-48 -70.5q-35 -31 -74 -42.5t-92 -11.5h-120v-143h-80v686h80v-130h110q56 0 89 -7t61 -25q88 -58 88 -164z" />
    <glyph glyph-name="Yacute" unicode="&#xdd;" horiz-adv-x="509" 
d="M296 267v-267h-85v272l-221 414h101l130 -262l17.5 -37.5t12.5 -28.5t5 -11l11 23.5l26 53.5l132 262h94zM180 726l-26 47l207 130l43 -77z" />
    <glyph glyph-name="Udieresis" unicode="&#xdc;" horiz-adv-x="625" 
d="M540 198q0 -62 -10.5 -96.5t-41.5 -60.5q-32 -27 -74.5 -40t-105.5 -13q-80 0 -127.5 24t-75.5 75q-14 25 -17 54.5t-3 52.5v492h81v-462q0 -26 2.5 -54.5t9.5 -44.5q5 -11 14.5 -23t25.5 -22t39 -16t55 -6q43 0 74 11t47 32q17 23 21.5 47.5t4.5 59.5v478h81v-488z
M261 781q0 -22 -14.5 -37.5t-36.5 -15.5t-37 15.5t-15 37.5q0 21 15 36t36 15q22 0 37 -15t15 -36zM467 781q0 -22 -15 -37.5t-36 -15.5q-22 0 -37.5 15.5t-15.5 37.5q0 21 15 36t37 15q21 0 36.5 -15t15.5 -36z" />
    <glyph glyph-name="Ucircumflex" unicode="&#xdb;" horiz-adv-x="625" 
d="M540 198q0 -62 -10.5 -96.5t-41.5 -60.5q-32 -27 -74.5 -40t-105.5 -13q-80 0 -127.5 24t-75.5 75q-14 25 -17 54.5t-3 52.5v492h81v-462q0 -26 2.5 -54.5t9.5 -44.5q5 -11 14.5 -23t25.5 -22t39 -16t55 -6q43 0 74 11t47 32q17 23 21.5 47.5t4.5 59.5v478h81v-488z
M447 721l-139 85l-135 -85l-31 44l170 135l171 -135z" />
    <glyph glyph-name="Uacute" unicode="&#xda;" horiz-adv-x="625" 
d="M540 198q0 -62 -10.5 -96.5t-41.5 -60.5q-32 -27 -74.5 -40t-105.5 -13q-80 0 -127.5 24t-75.5 75q-14 25 -17 54.5t-3 52.5v492h81v-462q0 -26 2.5 -54.5t9.5 -44.5q5 -11 14.5 -23t25.5 -22t39 -16t55 -6q43 0 74 11t47 32q17 23 21.5 47.5t4.5 59.5v478h81v-488z
M213 725l-26 47l207 130l43 -77z" />
    <glyph glyph-name="Ugrave" unicode="&#xd9;" horiz-adv-x="625" 
d="M540 198q0 -62 -10.5 -96.5t-41.5 -60.5q-32 -27 -74.5 -40t-105.5 -13q-80 0 -127.5 24t-75.5 75q-14 25 -17 54.5t-3 52.5v492h81v-462q0 -26 2.5 -54.5t9.5 -44.5q5 -11 14.5 -23t25.5 -22t39 -16t55 -6q43 0 74 11t47 32q17 23 21.5 47.5t4.5 59.5v478h81v-488z
M374 725l-224 100l43 77l207 -130z" />
    <glyph glyph-name="multiply" unicode="&#xd7;" horiz-adv-x="534" 
d="M393 73l-126 126l-126 -126l-51 51l126 126l-126 126l51 51l126 -126l126 126l51 -51l-126 -126l126 -126z" />
    <glyph glyph-name="Odieresis" unicode="&#xd6;" horiz-adv-x="671" 
d="M519 320q0 76 -8 129t-25 89q-18 38 -55.5 66t-97.5 28q-48 0 -87.5 -21.5t-59.5 -58.5q-18 -34 -26.5 -79.5t-8.5 -109.5q0 -78 12 -141t32 -98q10 -17 26 -30.5t35.5 -23t41.5 -15t43 -5.5q42 0 73.5 15t54.5 44q13 16 22.5 35t15.5 44t9 57.5t3 74.5zM611 332
q0 -99 -24 -165t-76 -114q-38 -35 -79 -50.5t-95 -15.5q-63 0 -111.5 23.5t-83.5 63.5q-82 94 -82 272q0 82 19 147t54 110.5t86 70t114 24.5q45 0 79.5 -10.5t60.5 -27t45 -36.5t31 -38q32 -48 47 -109.5t15 -144.5zM281 781q0 -22 -14.5 -37.5t-36.5 -15.5t-37 15.5
t-15 37.5q0 21 15 36t36 15q22 0 37 -15t15 -36zM487 781q0 -22 -15 -37.5t-36 -15.5q-22 0 -37.5 15.5t-15.5 37.5q0 21 15 36t37 15q21 0 36.5 -15t15.5 -36z" />
    <glyph glyph-name="Otilde" unicode="&#xd5;" horiz-adv-x="671" 
d="M519 320q0 76 -8 129t-25 89q-18 38 -55.5 66t-97.5 28q-48 0 -87.5 -21.5t-59.5 -58.5q-18 -34 -26.5 -79.5t-8.5 -109.5q0 -78 12 -141t32 -98q10 -17 26 -30.5t35.5 -23t41.5 -15t43 -5.5q42 0 73.5 15t54.5 44q13 16 22.5 35t15.5 44t9 57.5t3 74.5zM611 332
q0 -99 -24 -165t-76 -114q-38 -35 -79 -50.5t-95 -15.5q-63 0 -111.5 23.5t-83.5 63.5q-82 94 -82 272q0 82 19 147t54 110.5t86 70t114 24.5q45 0 79.5 -10.5t60.5 -27t45 -36.5t31 -38q32 -48 47 -109.5t15 -144.5zM508 816q-25 -31 -51 -47t-70 -16q-23 0 -37.5 6
t-27 12.5t-26.5 12.5t-36 6q-24 0 -38.5 -11t-30.5 -28l-28 45q25 31 50.5 47t69.5 16q23 0 37.5 -6t27 -12.5t26.5 -12.5t36 -6q24 0 39 11t31 28z" />
    <glyph glyph-name="Ocircumflex" unicode="&#xd4;" horiz-adv-x="671" 
d="M519 320q0 76 -8 129t-25 89q-18 38 -55.5 66t-97.5 28q-48 0 -87.5 -21.5t-59.5 -58.5q-18 -34 -26.5 -79.5t-8.5 -109.5q0 -78 12 -141t32 -98q10 -17 26 -30.5t35.5 -23t41.5 -15t43 -5.5q42 0 73.5 15t54.5 44q13 16 22.5 35t15.5 44t9 57.5t3 74.5zM611 332
q0 -99 -24 -165t-76 -114q-38 -35 -79 -50.5t-95 -15.5q-63 0 -111.5 23.5t-83.5 63.5q-82 94 -82 272q0 82 19 147t54 110.5t86 70t114 24.5q45 0 79.5 -10.5t60.5 -27t45 -36.5t31 -38q32 -48 47 -109.5t15 -144.5zM472 721l-139 85l-135 -85l-31 44l170 135l171 -135z
" />
    <glyph glyph-name="Oacute" unicode="&#xd3;" horiz-adv-x="671" 
d="M519 320q0 76 -8 129t-25 89q-18 38 -55.5 66t-97.5 28q-48 0 -87.5 -21.5t-59.5 -58.5q-18 -34 -26.5 -79.5t-8.5 -109.5q0 -78 12 -141t32 -98q10 -17 26 -30.5t35.5 -23t41.5 -15t43 -5.5q42 0 73.5 15t54.5 44q13 16 22.5 35t15.5 44t9 57.5t3 74.5zM611 332
q0 -99 -24 -165t-76 -114q-38 -35 -79 -50.5t-95 -15.5q-63 0 -111.5 23.5t-83.5 63.5q-82 94 -82 272q0 82 19 147t54 110.5t86 70t114 24.5q45 0 79.5 -10.5t60.5 -27t45 -36.5t31 -38q32 -48 47 -109.5t15 -144.5zM278 725l-26 47l207 130l43 -77z" />
    <glyph glyph-name="Ograve" unicode="&#xd2;" horiz-adv-x="671" 
d="M519 320q0 76 -8 129t-25 89q-18 38 -55.5 66t-97.5 28q-48 0 -87.5 -21.5t-59.5 -58.5q-18 -34 -26.5 -79.5t-8.5 -109.5q0 -78 12 -141t32 -98q10 -17 26 -30.5t35.5 -23t41.5 -15t43 -5.5q42 0 73.5 15t54.5 44q13 16 22.5 35t15.5 44t9 57.5t3 74.5zM611 332
q0 -99 -24 -165t-76 -114q-38 -35 -79 -50.5t-95 -15.5q-63 0 -111.5 23.5t-83.5 63.5q-82 94 -82 272q0 82 19 147t54 110.5t86 70t114 24.5q45 0 79.5 -10.5t60.5 -27t45 -36.5t31 -38q32 -48 47 -109.5t15 -144.5zM413 725l-224 100l43 77l207 -130z" />
    <glyph glyph-name="Ntilde" unicode="&#xd1;" horiz-adv-x="636" 
d="M460 0l-220 420q-17 31 -31 60.5l-24.5 53l-16.5 37.5l-6 14l1.5 -16.5t3 -43.5t3 -60.5t1.5 -66.5l4 -398h-85v686h95l228 -438l25 -51.5t20.5 -46l13.5 -33.5l5 -13l-1.5 18.5t-3 48.5t-3 67.5t-1.5 74.5l-3 373h81v-686h-86zM486 816q-25 -31 -51 -47t-70 -16
q-23 0 -37.5 6t-27 12.5t-26.5 12.5t-36 6q-24 0 -38.5 -11t-30.5 -28l-28 45q25 31 50.5 47t69.5 16q23 0 37.5 -6t27 -12.5t26.5 -12.5t36 -6q24 0 39 11t31 28z" />
    <glyph glyph-name="Eth" unicode="&#xd0;" horiz-adv-x="623" 
d="M474 332q0 77 -12.5 130t-46.5 94q-17 20 -34 32.5t-36.5 19t-41.5 9t-49 2.5h-82v-239h159l-24 -59h-135v-253h82q27 0 52 2t47.5 9.5t41.5 22t33 38.5q23 40 34.5 89t11.5 103zM563 342q0 -91 -21.5 -154.5t-56.5 -101.5q-23 -25 -46 -41.5t-48.5 -26.5t-55.5 -14
t-66 -4h-179v321h-84v59h84v306h137q39 0 69 -1.5t55 -7t48 -16t48 -28.5q59 -42 87.5 -116t28.5 -175z" />
    <glyph glyph-name="Idieresis" unicode="&#xcf;" 
d="M90 0v686h80v-686h-80zM78 781q0 -22 -14.5 -37.5t-36.5 -15.5t-37 15.5t-15 37.5q0 21 15 36t36 15q22 0 37 -15t15 -36zM285 781q0 -22 -15 -37.5t-36 -15.5q-22 0 -37.5 15.5t-15.5 37.5q0 21 15 36t37 15q21 0 36.5 -15t15.5 -36z" />
    <glyph glyph-name="Icircumflex" unicode="&#xce;" 
d="M90 0v686h80v-686h-80zM265 721l-139 85l-135 -85l-31 44l170 135l171 -135z" />
    <glyph glyph-name="Iacute" unicode="&#xcd;" 
d="M90 0v686h80v-686h-80zM88 725l-26 47l207 130l43 -77z" />
    <glyph glyph-name="Igrave" unicode="&#xcc;" 
d="M90 0v686h80v-686h-80zM178 725l-224 100l43 77l207 -130z" />
    <glyph glyph-name="Edieresis" unicode="&#xcb;" horiz-adv-x="510" 
d="M90 0v686h375l-11 -68h-281v-225h235v-71h-235v-251h302v-71h-385zM229 781q0 -22 -14.5 -37.5t-36.5 -15.5t-37 15.5t-15 37.5q0 21 15 36t36 15q22 0 37 -15t15 -36zM436 781q0 -22 -15 -37.5t-36 -15.5q-22 0 -37.5 15.5t-15.5 37.5q0 21 15 36t37 15q21 0 36.5 -15
t15.5 -36z" />
    <glyph glyph-name="Ecircumflex" unicode="&#xca;" horiz-adv-x="510" 
d="M90 0v686h375l-11 -68h-281v-225h235v-71h-235v-251h302v-71h-385zM416 721l-139 85l-135 -85l-31 44l170 135l171 -135z" />
    <glyph glyph-name="Eacute" unicode="&#xc9;" horiz-adv-x="510" 
d="M90 0v686h375l-11 -68h-281v-225h235v-71h-235v-251h302v-71h-385zM198 725l-26 47l207 130l43 -77z" />
    <glyph glyph-name="Egrave" unicode="&#xc8;" horiz-adv-x="510" 
d="M90 0v686h375l-11 -68h-281v-225h235v-71h-235v-251h302v-71h-385zM366 725l-224 100l43 77l207 -130z" />
    <glyph glyph-name="Ccedilla" unicode="&#xc7;" horiz-adv-x="563" 
d="M533 45q-41 -26 -89 -40.5t-99 -15.5l-8 -31q38 -5 51.5 -25t13.5 -47q0 -14 -6.5 -29t-18.5 -27t-30.5 -19.5t-42.5 -7.5q-23 0 -45 8t-37 16l21 47q20 -9 32 -12.5t29 -3.5q14 0 25 8t11 22q0 15 -12.5 22t-25.5 7q-16 0 -26 -2l-9 10l19 70q-41 9 -78 30t-66 55
q-44 50 -63 117t-19 144q0 76 21.5 141t60 112.5t91.5 74t115 26.5q50 0 94 -14.5t79 -41.5l-44 -53q-31 23 -61.5 33t-68.5 10q-60 0 -102 -30t-67 -88q-15 -35 -22 -78t-7 -104q0 -50 5 -82.5t17 -62.5q26 -65 75.5 -96.5t108.5 -31.5q38 0 69.5 10.5t64.5 33.5z" />
    <glyph glyph-name="Aring" unicode="&#xc5;" horiz-adv-x="573" 
d="M284 614l-108 -336h213zM346 819q0 24 -18 42t-44 18q-23 0 -40 -18t-17 -42t18 -42t42 -18q23 0 41 18t18 42zM475 0l-65 211h-256l-66 -211h-83l229 686h107l227 -686h-93zM391 819q0 -22 -8 -41t-22.5 -33.5t-33.5 -23t-40 -8.5q-22 0 -41 8.5t-33.5 23t-23 33.5
t-8.5 41t8 41t22.5 33.5t33.5 23t40 8.5t40.5 -8.5t34 -23t23 -33.5t8.5 -41z" />
    <glyph glyph-name="Adieresis" unicode="&#xc4;" horiz-adv-x="573" 
d="M284 614l-108 -336h213zM475 0l-65 211h-256l-66 -211h-83l229 686h107l227 -686h-93zM237 781q0 -22 -14.5 -37.5t-36.5 -15.5t-37 15.5t-15 37.5q0 21 15 36t36 15q22 0 37 -15t15 -36zM444 781q0 -22 -15 -37.5t-36 -15.5q-22 0 -37.5 15.5t-15.5 37.5q0 21 15 36
t37 15q21 0 36.5 -15t15.5 -36z" />
    <glyph glyph-name="Atilde" unicode="&#xc3;" horiz-adv-x="573" 
d="M284 614l-108 -336h213zM475 0l-65 211h-256l-66 -211h-83l229 686h107l227 -686h-93zM455 816q-25 -31 -51 -47t-70 -16q-23 0 -37.5 6t-27 12.5t-26.5 12.5t-36 6q-24 0 -38.5 -11t-30.5 -28l-28 45q25 31 50.5 47t69.5 16q23 0 37.5 -6t27 -12.5t26.5 -12.5t36 -6
q24 0 39 11t31 28z" />
    <glyph glyph-name="Acircumflex" unicode="&#xc2;" horiz-adv-x="573" 
d="M284 614l-108 -336h213zM475 0l-65 211h-256l-66 -211h-83l229 686h107l227 -686h-93zM422 721l-139 85l-135 -85l-31 44l170 135l171 -135z" />
    <glyph glyph-name="Aacute" unicode="&#xc1;" horiz-adv-x="573" 
d="M284 614l-108 -336h213zM475 0l-65 211h-256l-66 -211h-83l229 686h107l227 -686h-93zM226 725l-26 47l207 130l43 -77z" />
    <glyph glyph-name="Agrave" unicode="&#xc0;" horiz-adv-x="573" 
d="M284 614l-108 -336h213zM475 0l-65 211h-256l-66 -211h-83l229 686h107l227 -686h-93zM348 725l-224 100l43 77l207 -130z" />
    <glyph glyph-name="mu" unicode="&#xb5;" horiz-adv-x="553" 
d="M447 -21q-25 20 -37 37.5t-17 42.5q-57 -76 -158 -76q-19 0 -37.5 4.5t-29.5 14.5v-195l-78 -15v702l78 16v-359q0 -37 6 -53.5t23 -28.5q12 -8 28.5 -13.5t33.5 -5.5q37 0 72 24.5t55 65.5v353l77 13v-353q0 -25 1 -43t4.5 -32t10 -25t18.5 -21z" />
    <glyph glyph-name="plusminus" unicode="&#xb1;" horiz-adv-x="471" 
d="M52 36v71h367v-71h-367zM271 294v-140h-71v140h-150v71h150v133h71v-133h150v-71h-150z" />
    <glyph glyph-name="degree" unicode="&#xb0;" horiz-adv-x="402" 
d="M295 511q0 58 -20.5 91.5t-75.5 33.5q-48 0 -69.5 -26.5t-21.5 -80.5q0 -67 23.5 -96t72.5 -29q42 0 66.5 25t24.5 82zM362 515q0 -35 -9.5 -65t-29 -52.5t-50 -35.5t-72.5 -13q-75 0 -118 46t-43 126t42.5 125t117.5 45q76 0 119 -45.5t43 -130.5z" />
    <glyph glyph-name="registered" unicode="&#xae;" horiz-adv-x="864" 
d="M507 447q0 22 -10.5 38t-27.5 23q-19 8 -51 8h-43v-144h40q28 0 44.5 4.5t27.5 14.5q20 20 20 56zM518 150l-15.5 28.5l-18.5 32.5l-20.5 34t-16 25t-16 21.5t-19.5 22.5q-8 9 -16 13.5t-21 5.5v-183h-58v413h116q37 0 60 -8t38 -22q14 -13 25.5 -34t11.5 -51
q0 -24 -7.5 -45t-22 -36.5t-35 -24.5t-46.5 -8q14 -11 22.5 -20.5t13.5 -17.5q7 -8 15.5 -21l19.5 -30l16 -25l18 -28l16 -25.5l10 -16.5h-70zM738 354q0 67 -24 125.5t-65.5 101t-97 67t-119.5 24.5t-120 -24.5t-97 -67t-65 -101t-24 -125.5q0 -68 24 -126t65 -100.5
t97 -67t120 -24.5t119.5 24.5t97 67t65.5 100.5t24 126zM804 354q0 -80 -29.5 -148t-80.5 -117.5t-118.5 -78t-143.5 -28.5t-143.5 28.5t-118.5 78t-80.5 117.5t-29.5 148q0 79 29.5 147.5t80.5 118t118.5 78t143.5 28.5t143.5 -28.5t118.5 -78t80.5 -118t29.5 -147.5z" />
    <glyph glyph-name="logicalnot" unicode="&#xac;" horiz-adv-x="489" 
d="M368 77v140h-318v71h389v-211h-71z" />
    <glyph glyph-name="copyright" unicode="&#xa9;" horiz-adv-x="864" 
d="M558 173q-49 -35 -111 -35q-41 0 -73.5 16.5t-55.5 45.5q-45 59 -45 148q0 36 7 66.5t20 56.5q23 45 62 70t87 25q29 0 55.5 -8.5t45.5 -24.5l-28 -38q-17 13 -34.5 18.5t-38.5 5.5q-63 0 -92 -59q-10 -20 -15 -46.5t-5 -64.5q0 -35 3.5 -57t11.5 -40q15 -35 42 -51
t60 -16q24 0 41.5 6t34.5 19zM738 354q0 67 -24 125.5t-65.5 101t-97 67t-119.5 24.5t-120 -24.5t-97 -67t-65 -101t-24 -125.5q0 -68 24 -126t65 -100.5t97 -67t120 -24.5t119.5 24.5t97 67t65.5 100.5t24 126zM804 354q0 -80 -29.5 -148t-80.5 -117.5t-118.5 -78
t-143.5 -28.5t-143.5 28.5t-118.5 78t-80.5 117.5t-29.5 148q0 79 29.5 147.5t80.5 118t118.5 78t143.5 28.5t143.5 -28.5t118.5 -78t80.5 -118t29.5 -147.5z" />
    <glyph glyph-name="brokenbar" unicode="&#xa6;" horiz-adv-x="246" 
d="M90 -208v410h66v-410h-66zM90 346v410h66v-410h-66z" />
    <glyph glyph-name="minus" unicode="&#x2212;" horiz-adv-x="585" 
d="M50 250v59h485v-59h-485z" />
    <glyph glyph-name="threesuperior" unicode="&#xb3;" horiz-adv-x="353" 
d="M313 383q0 -42 -28.5 -74t-68.5 -49q-22 -9 -53 -14.5t-64 -5.5q-11 0 -17 0.5t-20 2.5l-17 51q20 -3 27 -3.5t18 -0.5q38 0 68 7t55 29q14 12 21 28.5t7 33.5q0 20 -11.5 35t-31.5 20q-6 1 -11 2t-12 2t-18 1h-29h-16v51h16q33 0 50 1t26 5q12 5 20 17t8 28
q0 23 -16.5 37.5t-45.5 14.5t-51.5 -10.5t-45.5 -26.5l-33 37q27 24 64 40.5t75 16.5q54 0 89 -28.5t35 -74.5q0 -28 -14 -49.5t-40 -34.5q29 -13 46.5 -35t17.5 -54z" />
    <glyph glyph-name="twosuperior" unicode="&#xb2;" horiz-adv-x="348" 
d="M293 260h-247v40q20 14 42 33t51 50q50 53 70 88.5t20 64.5t-17.5 47t-44.5 18t-49.5 -13l-44.5 -26l-33 35q40 33 74 47.5t69 14.5q25 0 47.5 -9t38.5 -24.5t25.5 -36.5t9.5 -45q0 -25 -8.5 -48t-22 -43.5t-30 -39.5t-33.5 -36l-33.5 -33.5l-29.5 -28.5q5 0 10.5 0.5
t10.5 0.5h140z" />
    <glyph glyph-name="onesuperior" unicode="&#xb9;" horiz-adv-x="315" 
d="M85 260v55h62v256q-21 -14 -44 -23.5l-46 -19.5l-17 41l124 83h51v-337h60v-55h-190z" />
    <glyph glyph-name="threequarters" unicode="&#xbe;" horiz-adv-x="983" 
d="M313 383q0 -42 -28.5 -74t-68.5 -49q-22 -9 -53 -14.5t-64 -5.5q-11 0 -17 0.5t-20 2.5l-17 51q20 -3 27 -3.5t18 -0.5q38 0 68 7t55 29q14 12 21 28.5t7 33.5q0 20 -11.5 35t-31.5 20q-6 1 -11 2t-12 2t-18 1h-29h-16v51h16q33 0 50 1t26 5q12 5 20 17t8 28
q0 23 -16.5 37.5t-45.5 14.5t-51.5 -10.5t-45.5 -26.5l-33 37q27 24 64 40.5t75 16.5q54 0 89 -28.5t35 -74.5q0 -28 -14 -49.5t-40 -34.5q29 -13 46.5 -35t17.5 -54zM291 -154h-66l527 917h66zM900 71h-6q0 -3 0.5 -6t0.5 -6v-60l-67 -18v77q0 3 0.5 6.5t0.5 6.5h-14h-165
v47l146 275h75l-26.5 -51.5l-36.5 -70.5l-41.5 -77t-40.5 -70l7 1h93h3l-1 6q-2 8 -0.5 15t2.5 17l8 108l57 17v-155l-1 -8h4h45v-54h-43z" />
    <glyph glyph-name="onehalf" unicode="&#xbd;" horiz-adv-x="915" 
d="M85 260v55h62v256q-21 -14 -44 -23.5l-46 -19.5l-17 41l124 83h51v-337h60v-55h-190zM230 -154h-66l527 917h66zM860 0h-247v40q20 14 42 33t51 50q50 53 70 88.5t20 64.5t-17.5 47t-44.5 18t-49.5 -13l-44.5 -26l-33 35q40 33 74 47.5t69 14.5q25 0 47.5 -9t38.5 -24.5
t25.5 -36.5t9.5 -45q0 -25 -8.5 -48t-22 -43.5t-30 -39.5t-33.5 -36l-33.5 -33.5l-29.5 -28.5q5 0 10.5 0.5t10.5 0.5h140z" />
    <glyph glyph-name="onequarter" unicode="&#xbc;" horiz-adv-x="940" 
d="M85 260v55h62v256q-21 -14 -44 -23.5l-46 -19.5l-17 41l124 83h51v-337h60v-55h-190zM249 -154h-66l527 917h66zM857 71h-6q0 -3 0.5 -6t0.5 -6v-60l-67 -18v77q0 3 0.5 6.5t0.5 6.5h-14h-165v47l146 275h75l-26.5 -51.5l-36.5 -70.5l-41.5 -77t-40.5 -70l7 1h93h3l-1 6
q-2 8 -0.5 15t2.5 17l8 108l57 17v-155l-1 -8h4h45v-54h-43z" />
    <glyph glyph-name="currency" unicode="&#xa4;" horiz-adv-x="643" 
d="M215 386q56 0 76 -33.5t20 -91.5q0 -52 -22 -79.5t-69 -27.5q-51 0 -73.5 29.5t-22.5 95.5q0 51 20.5 79t70.5 28zM56 271q0 -74 37 -119l-43 -65l62 -41l41 64q30 -11 64 -11q39 0 66 10l41 -63l64 41l-45 65q19 21 27 48t8 65q0 51 -13.5 84t-29.5 44l42 63l-64 40
l-37 -65q-28 10 -60 10q-31 0 -58 -8l-38 63l-68 -40l44 -63q-40 -45 -40 -122z" />
    <glyph glyph-name="exclam" unicode="!" horiz-adv-x="282" 
d="M202 56q0 -26 -17.5 -44.5t-43.5 -18.5t-43.5 18t-17.5 44t17.5 43.5t43.5 17.5t43.5 -17.5t17.5 -42.5zM170 198h-60l-19 488l98 13z" />
    <glyph glyph-name="quotedbl" unicode="&#x22;" horiz-adv-x="399" 
d="M90 468v240h72v-240h-72zM237 468v240h72v-240h-72z" />
    <glyph glyph-name="uni00A0" unicode="&#xa0;" horiz-adv-x="230" 
 />
    <glyph glyph-name="uni00AD" unicode="&#xad;" horiz-adv-x="291" 
d="M50 229v76h191v-76h-191z" />
    <glyph glyph-name="uni2219" unicode="&#x2219;" horiz-adv-x="291" 
d="M211 279q0 -27 -19 -46.5t-46 -19.5t-46.5 19.5t-19.5 46.5q0 28 19 47t46 19t46.5 -19t19.5 -47z" />
    <glyph glyph-name="uni2224" unicode="&#x2224;" horiz-adv-x="291" 
d="M211 279q0 -27 -19 -46.5t-46 -19.5t-46.5 19.5t-19.5 46.5q0 28 19 47t46 19t46.5 -19t19.5 -47z" />
    <glyph glyph-name="uni2227" unicode="&#x2227;" horiz-adv-x="291" 
d="M211 279q0 -27 -19 -46.5t-46 -19.5t-46.5 19.5t-19.5 46.5q0 28 19 47t46 19t46.5 -19t19.5 -47z" />
    <glyph glyph-name="uni22C5" unicode="&#x22c5;" horiz-adv-x="291" 
d="M211 279q0 -27 -19 -46.5t-46 -19.5t-46.5 19.5t-19.5 46.5q0 28 19 47t46 19t46.5 -19t19.5 -47z" />
    <glyph glyph-name="uni037E" unicode="&#x37e;" horiz-adv-x="310" 
d="M230 29q0 -26 -10 -52.5t-28 -50.5q-15 -20 -38 -38t-46 -31l-28 44q59 29 67 89l-3 -0.5t-8 -0.5q-23 0 -39 19t-16 45q0 30 20.5 51t49.5 21q35 0 57 -27t22 -69zM215 372q0 -29 -19.5 -49t-47.5 -20t-48 21t-20 50q0 26 19.5 45t47.5 19t48 -19.5t20 -46.5z" />
    <glyph glyph-name="uni02C9" unicode="&#x2c9;" horiz-adv-x="314" 
d="M20 683v54h274v-54h-274z" />
    <glyph glyph-name="uni03BC" unicode="&#x3bc;" horiz-adv-x="553" 
d="M447 -21q-25 20 -37 37.5t-17 42.5q-57 -76 -158 -76q-19 0 -37.5 4.5t-29.5 14.5v-195l-78 -15v702l78 16v-359q0 -37 6 -53.5t23 -28.5q12 -8 28.5 -13.5t33.5 -5.5q37 0 72 24.5t55 65.5v353l77 13v-353q0 -25 1 -43t4.5 -32t10 -25t18.5 -21z" />
    <glyph glyph-name="numbersign" unicode="#" horiz-adv-x="556" 
d="M226 431l-21 -152h126l21 152h-126zM419 431l-21 -152h98v-66h-108l-30 -213h-67l30 213h-126l-30 -213h-67l30 213h-98v66h108l20 152h-98v66h108l30 211h67l-30 -211h126l30 211h67l-30 -211h98v-66h-107z" />
    </font>
</defs>
</svg>
